<svg xmlns="http://www.w3.org/2000/svg" xmlns:xlink="http://www.w3.org/1999/xlink" width="1920" zoomAndPan="magnify" viewBox="0 0 1440 809.999993" height="1080" preserveAspectRatio="xMidYMid meet" version="1.0"><defs><g/><clipPath id="de7b277564"><path d="M 26.796875 17.53125 L 1420 17.53125 L 1420 777.589844 L 26.796875 777.589844 Z M 26.796875 17.53125 " clip-rule="nonzero"/></clipPath><clipPath id="2d1a8e2985"><path d="M 27.578125 17.53125 L 1419.671875 17.53125 C 1419.878906 17.53125 1420.078125 17.613281 1420.222656 17.757812 C 1420.371094 17.90625 1420.453125 18.105469 1420.453125 18.3125 L 1420.453125 776.804688 C 1420.453125 777.011719 1420.371094 777.210938 1420.222656 777.359375 C 1420.078125 777.503906 1419.878906 777.589844 1419.671875 777.589844 L 27.578125 777.589844 C 27.371094 777.589844 27.171875 777.503906 27.027344 777.359375 C 26.878906 777.210938 26.796875 777.011719 26.796875 776.804688 L 26.796875 18.3125 C 26.796875 18.105469 26.878906 17.90625 27.027344 17.757812 C 27.171875 17.613281 27.371094 17.53125 27.578125 17.53125 Z M 27.578125 17.53125 " clip-rule="nonzero"/></clipPath><clipPath id="71f8b1f970"><path d="M 1126 211 L 1171 211 L 1171 248.515625 L 1126 248.515625 Z M 1126 211 " clip-rule="nonzero"/></clipPath><clipPath id="74e944f282"><path d="M 729 398 L 1437.523438 398 L 1437.523438 606.007812 L 729 606.007812 Z M 729 398 " clip-rule="nonzero"/></clipPath><clipPath id="483841a8fc"><path d="M 1095 616.4375 L 1375 616.4375 L 1375 779 L 1095 779 Z M 1095 616.4375 " clip-rule="nonzero"/></clipPath><clipPath id="67359a3375"><path d="M 1289 762 L 1327 762 L 1327 792.921875 L 1289 792.921875 Z M 1289 762 " clip-rule="nonzero"/></clipPath><clipPath id="ca6114d2c0"><path d="M 26.796875 40 L 731 40 L 731 243.132812 L 26.796875 243.132812 Z M 26.796875 40 " clip-rule="nonzero"/></clipPath><clipPath id="2709aa9709"><path d="M 497.085938 453 L 728.769531 453 L 728.769531 744.59375 L 497.085938 744.59375 Z M 497.085938 453 " clip-rule="nonzero"/></clipPath><clipPath id="81271b3341"><path d="M 215.796875 364.046875 L 574.359375 364.046875 L 574.359375 777.527344 L 215.796875 777.527344 Z M 215.796875 364.046875 " clip-rule="nonzero"/></clipPath><clipPath id="6e47d742ee"><path d="M 662.363281 494.40625 L 728.769531 494.40625 L 728.769531 551.4375 L 662.363281 551.4375 Z M 662.363281 494.40625 " clip-rule="nonzero"/></clipPath><clipPath id="f0993f9249"><path d="M 4 564.050781 L 284 564.050781 L 284 726 L 4 726 Z M 4 564.050781 " clip-rule="nonzero"/></clipPath><clipPath id="fed43ddef7"><path d="M 198 709 L 236 709 L 236 740.535156 L 198 740.535156 Z M 198 709 " clip-rule="nonzero"/></clipPath><clipPath id="5378b84523"><path d="M 570 264.144531 L 779 264.144531 L 779 388 L 570 388 Z M 570 264.144531 " clip-rule="nonzero"/></clipPath><clipPath id="dfd46476d4"><path d="M 616 380 L 653 380 L 653 410.753906 L 616 410.753906 Z M 616 380 " clip-rule="nonzero"/></clipPath></defs><g clip-path="url(#de7b277564)"><g clip-path="url(#2d1a8e2985)"><path fill="#faba62" d="M 26.796875 17.53125 L 1419.246094 17.53125 L 1419.246094 777.589844 L 26.796875 777.589844 Z M 26.796875 17.53125 " fill-opacity="1" fill-rule="nonzero"/></g></g><path fill="#fafafa" d="M 1211.199219 68.832031 C 1180.941406 68.167969 1151.960938 73.957031 1124.253906 86.195312 C 1124.210938 86.214844 1124.171875 86.234375 1124.128906 86.253906 C 1083.210938 107.890625 1064.996094 133.015625 1069.484375 161.636719 C 1069.492188 161.6875 1069.503906 161.738281 1069.515625 161.789062 C 1072.648438 174.875 1082.613281 186.816406 1099.402344 197.605469 L 1099.46875 197.648438 C 1114.675781 206.574219 1129.207031 212.445312 1143.0625 215.257812 L 1143.0625 215.261719 L 1143.074219 215.261719 C 1144.394531 215.53125 1145.707031 215.769531 1147.015625 215.984375 C 1147.476562 214.816406 1147.9375 213.558594 1148.398438 212.214844 L 1148.40625 212.214844 L 1148.398438 212.214844 L 1148.402344 212.214844 C 1147.101562 212.011719 1145.796875 211.78125 1144.476562 211.523438 L 1144.46875 211.523438 L 1144.476562 211.523438 C 1130.886719 208.851562 1116.570312 203.109375 1101.535156 194.289062 C 1085.699219 184.113281 1076.316406 173.027344 1073.382812 161.027344 C 1069.183594 134.285156 1086.675781 110.542969 1125.855469 89.800781 L 1125.847656 89.800781 C 1153.015625 77.796875 1181.445312 72.121094 1211.132812 72.773438 C 1222.835938 73.03125 1234.730469 74.269531 1246.824219 76.492188 C 1286.890625 85.21875 1311.316406 102.410156 1320.105469 128.066406 L 1320.09375 128.066406 C 1326.710938 157.058594 1314.285156 181.15625 1282.816406 200.359375 L 1282.804688 200.359375 C 1260.398438 211.449219 1233.722656 216.65625 1202.777344 215.976562 C 1192.320312 215.746094 1181.375 214.847656 1169.945312 213.273438 L 1169.9375 213.273438 C 1168.507812 213.074219 1167.070312 212.867188 1165.628906 212.648438 L 1165.617188 212.652344 C 1164.425781 213.761719 1163.191406 214.898438 1161.910156 216.0625 L 1161.917969 216.0625 C 1163.59375 216.328125 1165.257812 216.582031 1166.910156 216.824219 C 1179.394531 218.636719 1191.320312 219.667969 1202.683594 219.914062 C 1234.347656 220.609375 1261.683594 215.246094 1284.699219 203.816406 C 1284.75 203.792969 1284.800781 203.765625 1284.847656 203.734375 C 1318.023438 183.5 1331.035156 157.914062 1323.886719 126.984375 C 1323.871094 126.917969 1323.855469 126.851562 1323.832031 126.789062 C 1314.5625 99.71875 1289.148438 81.667969 1247.597656 72.628906 L 1247.535156 72.617188 C 1235.226562 70.355469 1223.113281 69.09375 1211.199219 68.832031 Z M 1144.476562 211.523438 L 1144.46875 211.523438 Z M 1144.476562 211.523438 " fill-opacity="0.988" fill-rule="nonzero"/><g clip-path="url(#71f8b1f970)"><path fill="#fafafa" d="M 1144.46875 211.523438 C 1143.996094 212.867188 1143.527344 214.113281 1143.0625 215.261719 C 1142.777344 215.960938 1142.496094 216.621094 1142.210938 217.246094 C 1138.109375 226.351562 1133.015625 235.308594 1126.929688 244.117188 C 1126.84375 244.246094 1126.773438 244.382812 1126.714844 244.523438 C 1126.546875 244.957031 1126.4375 245.339844 1126.378906 245.671875 C 1126.148438 247.003906 1126.578125 247.910156 1127.671875 248.386719 C 1127.929688 248.5 1128.195312 248.558594 1128.472656 248.5625 C 1128.828125 248.570312 1129.195312 248.492188 1129.585938 248.328125 C 1130.535156 247.925781 1132.554688 246.449219 1135.644531 243.898438 L 1135.660156 243.886719 C 1145.554688 235.558594 1152.917969 229.269531 1157.75 225.027344 C 1161.042969 222.160156 1164.09375 219.425781 1166.910156 216.824219 L 1166.917969 216.824219 L 1166.910156 216.824219 L 1166.914062 216.824219 C 1166.910156 216.824219 1166.90625 216.824219 1166.902344 216.824219 L 1166.910156 216.824219 C 1168.1875 215.640625 1169.414062 214.488281 1170.59375 213.363281 L 1170.605469 213.363281 L 1170.59375 213.363281 L 1170.597656 213.363281 C 1168.949219 213.140625 1167.292969 212.902344 1165.625 212.648438 L 1165.613281 212.648438 C 1164.425781 213.761719 1163.191406 214.898438 1161.910156 216.0625 L 1161.914062 216.0625 L 1161.910156 216.0625 C 1159.789062 217.988281 1157.539062 219.984375 1155.160156 222.054688 L 1155.15625 222.058594 C 1150.59375 226.070312 1143.753906 231.917969 1134.628906 239.605469 C 1138.921875 232.78125 1142.648438 225.871094 1145.804688 218.871094 C 1146.207031 217.976562 1146.609375 217.015625 1147.015625 215.984375 L 1147.027344 215.984375 L 1147.015625 215.984375 L 1147.019531 215.984375 C 1147.019531 215.984375 1147.015625 215.984375 1147.011719 215.980469 L 1147.015625 215.984375 C 1147.476562 214.816406 1147.9375 213.558594 1148.398438 212.214844 L 1148.410156 212.214844 L 1148.398438 212.214844 L 1148.402344 212.214844 C 1147.101562 212.011719 1145.792969 211.78125 1144.476562 211.523438 Z M 1144.46875 211.523438 " fill-opacity="0.988" fill-rule="nonzero"/></g><g clip-path="url(#74e944f282)"><path fill="#fafafa" d="M 729.003906 411.582031 C 729.652344 431.699219 729.105469 432.910156 729.046875 446.179688 C 729.003906 456.363281 733.445312 458.769531 732.898438 471.289062 C 732.25 486.214844 733.898438 484.835938 733.546875 490.109375 C 732.898438 499.847656 730.953125 511.625 730.953125 517.367188 C 730.953125 526.484375 729.628906 540.222656 730.304688 549.171875 C 731.042969 558.976562 729.003906 556.957031 731.601562 573.183594 C 734.195312 589.410156 732.898438 589.882812 732.898438 599.792969 C 732.898438 603.3125 726.042969 610.363281 737.441406 612.773438 C 767.878906 619.203125 833.78125 610.367188 865.292969 609 C 894.84375 607.71875 914.972656 611.96875 943.828125 609.527344 C 966.671875 607.597656 1002.257812 616.695312 1026.25 616.019531 C 1067.460938 614.855469 1101.417969 607.078125 1142.421875 605.632812 C 1162.746094 604.917969 1197.976562 604.097656 1218.355469 604.335938 C 1234.902344 604.53125 1242.40625 608.226562 1258.597656 608.878906 C 1275.546875 609.5625 1305.203125 607.050781 1321.550781 606.28125 C 1341.34375 605.355469 1362.515625 600.34375 1382.085938 601.722656 C 1392.121094 602.429688 1457.574219 606.550781 1464.300781 603.707031 C 1467.628906 602.300781 1464.980469 600.441406 1466.925781 585.515625 C 1468.875 570.585938 1466.914062 569.972656 1464.300781 556.714844 C 1462.699219 548.585938 1466.765625 529.511719 1465.628906 520.613281 C 1463.367188 502.867188 1458.726562 499.253906 1459.789062 482.972656 C 1460.628906 470.085938 1464.300781 457.671875 1464.300781 444.859375 C 1464.300781 434.292969 1465.628906 428.953125 1465.628906 418.070312 C 1465.628906 416.488281 1469.363281 400.195312 1464.332031 399.25 C 1455.371094 397.566406 1421.171875 403.285156 1412.621094 403.820312 C 1371.570312 406.390625 1349.425781 400.640625 1307.273438 399.898438 C 1289.5625 399.585938 1251.8125 406.304688 1234.09375 405.808594 C 1205.636719 405.003906 1157.964844 410.902344 1134.636719 410.28125 C 1102.929688 409.441406 1096.136719 402.121094 1057.402344 401.195312 C 1049.519531 401.007812 1016.460938 399.347656 1008.585938 399.1875 C 978.65625 398.585938 948.441406 400.027344 918.410156 401.695312 C 895.039062 402.992188 871.777344 404.425781 848.851562 405.144531 C 830.128906 405.730469 808.617188 406.46875 790.125 406.46875 C 767.980469 406.46875 728.828125 406.039062 729.003906 411.582031 Z M 729.003906 411.582031 " fill-opacity="1" fill-rule="nonzero"/></g><g clip-path="url(#483841a8fc)"><path fill="#fafafa" d="M 1250.914062 616.632812 C 1208.015625 616.925781 1169.027344 625.738281 1134.460938 643.742188 C 1117.640625 652.503906 1106.75 666.21875 1101.242188 682.886719 C 1093.414062 706.574219 1093.5 725.566406 1103.207031 738.101562 C 1117.414062 756.449219 1143.175781 768.640625 1179.234375 773.765625 C 1201.050781 776.863281 1221.535156 778.261719 1240.667969 778.132812 C 1260.15625 778 1278.238281 776.28125 1294.886719 773.160156 L 1294.890625 773.164062 L 1294.886719 773.160156 L 1294.898438 773.160156 C 1296.886719 772.785156 1298.855469 772.394531 1300.804688 771.980469 L 1300.808594 771.980469 L 1300.804688 771.980469 L 1300.816406 771.980469 C 1299.066406 770.726562 1297.433594 769.554688 1295.921875 768.476562 L 1295.910156 768.480469 C 1293.914062 768.867188 1291.902344 769.234375 1289.863281 769.582031 L 1289.871094 769.582031 L 1289.863281 769.582031 C 1274.664062 772.171875 1258.246094 773.601562 1240.636719 773.722656 C 1221.746094 773.851562 1201.476562 772.472656 1179.855469 769.402344 C 1144.328125 764.351562 1119.898438 752.453125 1106.691406 735.402344 C 1098.386719 724.675781 1097.726562 707.582031 1105.429688 684.269531 C 1110.597656 668.636719 1120.75 655.855469 1136.5 647.652344 C 1170.347656 630.023438 1208.632812 621.332031 1250.945312 621.042969 C 1265.488281 620.945312 1280.507812 621.835938 1295.988281 623.703125 C 1322.519531 626.898438 1341.316406 635.515625 1353.503906 647.960938 C 1362.378906 657.023438 1368.671875 674.082031 1369.871094 700.53125 C 1371.429688 734.789062 1370.1875 744.78125 1364.007812 749.222656 C 1354.433594 756.101562 1339.242188 759.300781 1314.789062 762.214844 C 1313.308594 762.390625 1311.792969 762.566406 1310.246094 762.738281 L 1310.257812 762.742188 C 1310.8125 764.101562 1311.390625 765.515625 1311.996094 766.980469 C 1313.542969 766.800781 1315.054688 766.625 1316.535156 766.445312 L 1316.539062 766.449219 L 1316.535156 766.445312 L 1316.550781 766.449219 C 1316.550781 766.445312 1316.550781 766.445312 1316.550781 766.445312 C 1340.261719 763.582031 1356.199219 760.265625 1366.582031 752.804688 C 1375.1875 746.621094 1375.773438 733.265625 1374.277344 700.332031 C 1373.054688 673.472656 1366.652344 655.085938 1356.65625 644.878906 C 1343.554688 631.503906 1323.703125 622.601562 1296.515625 619.324219 C 1280.867188 617.441406 1265.660156 616.535156 1250.914062 616.632812 Z M 1250.914062 616.632812 " fill-opacity="0.988" fill-rule="nonzero"/></g><path fill="#fafafa" d="M 1300.816406 771.980469 L 1300.800781 771.984375 L 1300.792969 771.984375 C 1300.792969 771.984375 1300.796875 771.984375 1300.796875 771.984375 Z M 1300.816406 771.980469 " fill-opacity="0.988" fill-rule="nonzero"/><g clip-path="url(#67359a3375)"><path fill="#fafafa" d="M 1314.804688 762.214844 L 1314.789062 762.214844 C 1313.304688 762.390625 1311.792969 762.566406 1310.246094 762.738281 L 1310.257812 762.742188 C 1310.8125 764.101562 1311.390625 765.515625 1311.996094 766.980469 C 1312.328125 767.773438 1312.664062 768.578125 1313.007812 769.402344 C 1314.414062 772.917969 1316.996094 778.539062 1320.75 786.257812 C 1320.167969 785.867188 1319.503906 785.414062 1318.753906 784.90625 C 1311.800781 779.875 1305.824219 775.566406 1300.820312 771.980469 L 1300.816406 771.980469 C 1299.066406 770.726562 1297.4375 769.558594 1295.925781 768.480469 L 1295.90625 768.480469 C 1293.914062 768.867188 1291.902344 769.234375 1289.863281 769.582031 L 1289.878906 769.582031 C 1291.386719 770.652344 1293.0625 771.84375 1294.898438 773.160156 C 1300.476562 777.148438 1307.566406 782.253906 1316.171875 788.476562 L 1316.21875 788.511719 C 1319.296875 790.613281 1321.128906 791.8125 1321.710938 792.113281 C 1321.773438 792.144531 1321.832031 792.175781 1321.894531 792.203125 L 1321.878906 792.203125 C 1322.433594 792.523438 1322.988281 792.679688 1323.539062 792.675781 C 1324.09375 792.671875 1324.644531 792.507812 1325.195312 792.179688 C 1326.320312 791.578125 1326.804688 790.5625 1326.652344 789.132812 C 1326.59375 788.550781 1326.398438 787.878906 1326.070312 787.109375 L 1326.019531 787 C 1321.582031 777.960938 1318.605469 771.535156 1317.085938 767.734375 L 1317.074219 767.703125 C 1316.898438 767.277344 1316.722656 766.859375 1316.550781 766.445312 L 1316.550781 766.449219 C 1315.941406 764.984375 1315.359375 763.574219 1314.804688 762.214844 Z M 1314.804688 762.214844 " fill-opacity="0.988" fill-rule="nonzero"/></g><path fill="#fafafa" d="M 1316.550781 766.445312 L 1316.539062 766.449219 C 1315.058594 766.625 1313.554688 766.800781 1312.015625 766.976562 C 1313.554688 766.800781 1315.058594 766.625 1316.535156 766.445312 L 1316.535156 766.449219 L 1316.535156 766.445312 Z M 1316.550781 766.445312 " fill-opacity="0.988" fill-rule="nonzero"/><g fill="#000000" fill-opacity="1"><g transform="translate(738.885707, 545.84689)"><g><path d="M 69.65625 -110.5 C 30.296875 -110.5 5.792969 -89.855469 5.792969 -65.496094 C 5.792969 -54.65625 12.179688 -44.851562 24.359375 -44.851562 C 38.765625 -44.851562 46.488281 -57.625 43.8125 -64.160156 C 40.546875 -64.160156 38.171875 -67.132812 38.171875 -71.140625 C 38.171875 -84.804688 53.023438 -90.597656 70.25 -90.597656 C 86.738281 -90.597656 96.09375 -85.398438 96.09375 -72.625 C 96.09375 -59.855469 87.183594 -52.875 78.863281 -52.875 C 72.328125 -52.875 70.84375 -55.546875 72.925781 -61.488281 L 72.476562 -60.449219 C 73.371094 -64.160156 75.152344 -68.765625 77.378906 -75.300781 C 78.863281 -80.203125 77.082031 -83.320312 70.84375 -83.320312 C 66.390625 -83.320312 63.121094 -81.390625 61.191406 -76.191406 C 58.664062 -69.804688 55.84375 -62.230469 53.320312 -55.546875 C 46.339844 -37.722656 35.199219 -30.148438 27.03125 -30.148438 C 20.050781 -30.148438 14.554688 -34.605469 14.554688 -41.140625 C 14.554688 -42.179688 13.515625 -42.921875 12.328125 -42.921875 C 0.445312 -42.921875 -7.425781 -30.742188 -7.425781 -18.269531 C -7.425781 -6.089844 -0.445312 6.238281 16.929688 6.238281 C 36.238281 6.238281 51.984375 -11.140625 60.597656 -33.863281 L 61.042969 -34.902344 L 60.597656 -33.863281 L 61.339844 -35.347656 C 62.230469 -36.683594 63.417969 -37.425781 64.902344 -37.425781 C 68.617188 -37.425781 70.25 -33.121094 80.054688 -33.121094 C 106.636719 -33.121094 119.855469 -54.210938 119.855469 -72.625 C 119.855469 -96.835938 103.816406 -110.5 69.65625 -110.5 Z M 69.65625 -110.5 "/></g></g></g><g fill="#000000" fill-opacity="1"><g transform="translate(851.751153, 545.84689)"><g><path d="M 27.921875 0 C 45.152344 0 60.894531 -12.773438 73.964844 -36.980469 C 75.597656 -39.804688 69.65625 -44.257812 67.28125 -40.695312 C 60.597656 -30.445312 48.566406 -25.25 38.46875 -25.25 C 30 -25.25 23.019531 -27.921875 23.019531 -33.121094 C 23.019531 -35.050781 24.507812 -35.496094 25.546875 -34.902344 C 28.960938 -32.972656 32.972656 -32.527344 37.128906 -32.527344 C 51.683594 -32.527344 61.042969 -44.703125 61.042969 -55.546875 C 61.042969 -65.347656 54.953125 -74.261719 41.140625 -74.261719 C -1.484375 -74.261719 -13.8125 0 27.921875 0 Z M 33.269531 -43.664062 C 28.515625 -43.664062 26.289062 -46.488281 26.289062 -49.753906 C 26.289062 -53.765625 29.851562 -58.070312 35.644531 -58.070312 C 40.25 -58.070312 42.476562 -55.25 42.476562 -51.984375 C 42.476562 -48.269531 39.0625 -43.664062 33.269531 -43.664062 Z M 33.269531 -43.664062 "/></g></g></g><g fill="#000000" fill-opacity="1"><g transform="translate(915.609253, 545.84689)"><g><path d="M 62.082031 -40.695312 C 59.113281 -36.238281 56.289062 -33.121094 51.832031 -33.121094 C 45.152344 -33.121094 42.625 -36.238281 42.625 -40.398438 C 42.625 -49.605469 49.011719 -55.84375 49.011719 -64.308594 C 49.011719 -72.328125 34.753906 -81.835938 20.792969 -81.835938 C 12.773438 -81.835938 7.574219 -74.558594 7.574219 -68.46875 C 7.574219 -63.121094 9.503906 -61.191406 12.476562 -60.152344 C 9.949219 -53.320312 6.238281 -44.703125 3.414062 -40.695312 C 1.484375 -37.871094 8.167969 -33.121094 10.097656 -36.980469 C 12.476562 -41.882812 17.378906 -51.984375 20.050781 -57.921875 C 25.992188 -55.695312 27.921875 -51.984375 27.921875 -50.496094 C 27.921875 -43.367188 17.527344 -29.40625 17.527344 -15.59375 C 17.527344 -8.019531 21.683594 0 33.863281 0 C 53.914062 0 64.011719 -28.8125 68.765625 -36.980469 C 70.398438 -39.804688 64.457031 -44.257812 62.082031 -40.695312 Z M 62.082031 -40.695312 "/></g></g></g><g fill="#000000" fill-opacity="1"><g transform="translate(974.269573, 545.84689)"><g><path d="M 61.042969 -40.695312 C 58.070312 -36.238281 54.953125 -32.972656 50.496094 -32.824219 C 48.566406 -42.03125 40.695312 -53.914062 40.695312 -56.734375 C 40.695312 -62.675781 51.535156 -63.121094 51.386719 -67.875 C 51.535156 -72.625 47.082031 -77.972656 37.871094 -77.972656 C 25.101562 -77.972656 14.554688 -55.84375 4.011719 -41.585938 L 3.414062 -40.695312 C -5.496094 -25.84375 -2.375 -0.148438 23.761719 -0.148438 C 51.386719 -0.148438 63.566406 -28.367188 67.726562 -36.980469 C 69.0625 -39.804688 63.417969 -44.257812 61.042969 -40.695312 Z M 18.417969 -30.742188 C 13.515625 -30.742188 10.097656 -33.417969 10.097656 -36.980469 C 13.515625 -41.289062 18.121094 -47.378906 21.832031 -52.875 C 23.167969 -54.804688 24.359375 -54.804688 25.398438 -52.875 C 27.476562 -48.863281 28.664062 -45.152344 28.664062 -41.585938 C 28.664062 -35.496094 24.953125 -30.742188 18.417969 -30.742188 Z M 18.417969 -30.742188 "/></g></g></g><g fill="#000000" fill-opacity="1"><g transform="translate(1031.741838, 545.84689)"><g><path d="M 74.113281 -40.695312 C 70.546875 -35.496094 66.539062 -33.417969 62.230469 -33.417969 L 61.191406 -33.417969 C 62.675781 -38.320312 63.417969 -43.515625 63.417969 -48.714844 C 63.417969 -67.429688 53.914062 -74.261719 41.734375 -74.261719 C 18.121094 -74.261719 0.890625 -47.230469 0.890625 -24.953125 C 0.890625 -9.503906 10.546875 0 23.910156 0 C 35.050781 0 45.597656 -6.535156 53.023438 -16.632812 L 54.804688 -16.632812 C 69.210938 -16.632812 76.488281 -27.921875 80.796875 -36.980469 C 82.429688 -40.398438 75.894531 -43.21875 74.113281 -40.695312 Z M 32.378906 -30.742188 C 26.734375 -30.742188 24.65625 -34.457031 24.65625 -38.765625 C 24.65625 -45.300781 29.554688 -52.578125 36.832031 -52.578125 C 42.625 -52.578125 45 -49.011719 45 -44.703125 C 45 -38.46875 39.804688 -30.742188 32.378906 -30.742188 Z M 32.378906 -30.742188 "/></g></g></g><g fill="#000000" fill-opacity="1"><g transform="translate(1102.431248, 545.84689)"><g><path d="M 9.355469 0 C 19.605469 0 21.535156 -8.167969 21.535156 -15.742188 L 21.535156 -22.425781 C 21.535156 -35.644531 28.960938 -47.972656 37.574219 -47.972656 C 40.992188 -47.972656 43.21875 -46.191406 43.21875 -42.773438 C 43.21875 -36.683594 36.980469 -26.734375 36.980469 -15.445312 C 36.980469 -7.128906 40.25 0 49.605469 0 C 69.65625 0 79.757812 -28.8125 84.507812 -36.980469 C 86.140625 -39.804688 80.203125 -44.257812 77.824219 -40.695312 C 74.855469 -36.238281 72.03125 -33.121094 67.578125 -33.121094 C 62.675781 -33.121094 60.449219 -35.496094 60.449219 -40.546875 C 60.449219 -47.972656 65.199219 -52.726562 65.199219 -60.597656 C 65.199219 -68.023438 60.894531 -74.261719 51.832031 -74.261719 C 45.300781 -74.261719 39.359375 -71.140625 33.863281 -65.792969 C 29.109375 -61.042969 26.140625 -62.824219 26.140625 -68.617188 C 26.140625 -71.585938 25.25 -74.261719 21.238281 -74.261719 C 15.742188 -74.261719 8.316406 -58.070312 3.414062 -40.695312 C 0 -28.515625 -1.484375 -17.824219 -1.484375 -10.84375 C -1.484375 -4.605469 2.375 0 9.355469 0 Z M 9.355469 0 "/></g></g></g><g fill="#000000" fill-opacity="1"><g transform="translate(1176.833346, 545.84689)"><g><path d="M 15.742188 0 C 26.289062 0 35.199219 -9.652344 41.140625 -21.683594 L 41.734375 -21.683594 C 39.953125 -9.355469 44.257812 0 54.507812 0 C 70.992188 0 79.160156 -23.167969 86.4375 -36.980469 C 87.925781 -39.804688 81.984375 -44.257812 79.757812 -40.695312 C 76.785156 -35.941406 73.074219 -33.121094 68.023438 -33.121094 C 61.488281 -33.121094 59.855469 -39.0625 64.902344 -49.902344 C 68.171875 -58.515625 72.03125 -63.121094 72.03125 -68.765625 C 72.03125 -72.03125 70.695312 -74.261719 66.835938 -74.261719 C 59.855469 -74.261719 58.8125 -68.617188 53.914062 -68.617188 C 50.050781 -68.617188 50.644531 -74.261719 38.765625 -74.261719 C 13.21875 -74.261719 0.445312 -43.070312 0.445312 -22.425781 C 0.445312 -9.207031 5.644531 0 15.742188 0 Z M 30.59375 -30.742188 C 25.992188 -30.742188 23.167969 -33.714844 23.167969 -38.765625 C 23.167969 -45.300781 28.070312 -52.578125 35.792969 -52.578125 C 40.546875 -52.578125 43.515625 -49.605469 43.515625 -44.703125 C 43.515625 -38.46875 38.320312 -30.742188 30.59375 -30.742188 Z M 30.59375 -30.742188 "/></g></g></g><g fill="#000000" fill-opacity="1"><g transform="translate(1253.166049, 545.84689)"><g><path d="M 12.625 0 C 32.675781 0 42.773438 -28.8125 47.527344 -36.980469 C 49.160156 -39.804688 43.21875 -44.257812 40.84375 -40.695312 C 37.722656 -35.941406 34.011719 -33.121094 28.8125 -33.121094 C 19.902344 -33.121094 21.089844 -41.585938 23.613281 -50.199219 C 27.03125 -62.675781 32.824219 -76.339844 40.992188 -92.824219 C 45.597656 -102.183594 43.515625 -106.785156 37.425781 -106.785156 C 25.398438 -106.785156 18.566406 -84.0625 3.566406 -40.695312 C 0.59375 -32.230469 -1.484375 -22.871094 -1.484375 -15.296875 C -1.484375 -6.535156 2.078125 0 12.625 0 Z M 12.625 0 "/></g></g></g><g fill="#000000" fill-opacity="1"><g transform="translate(1290.589854, 545.84689)"><g><path d="M 27.921875 0 C 45.152344 0 60.894531 -12.773438 73.964844 -36.980469 C 75.597656 -39.804688 69.65625 -44.257812 67.28125 -40.695312 C 60.597656 -30.445312 48.566406 -25.25 38.46875 -25.25 C 30 -25.25 23.019531 -27.921875 23.019531 -33.121094 C 23.019531 -35.050781 24.507812 -35.496094 25.546875 -34.902344 C 28.960938 -32.972656 32.972656 -32.527344 37.128906 -32.527344 C 51.683594 -32.527344 61.042969 -44.703125 61.042969 -55.546875 C 61.042969 -65.347656 54.953125 -74.261719 41.140625 -74.261719 C -1.484375 -74.261719 -13.8125 0 27.921875 0 Z M 33.269531 -43.664062 C 28.515625 -43.664062 26.289062 -46.488281 26.289062 -49.753906 C 26.289062 -53.765625 29.851562 -58.070312 35.644531 -58.070312 C 40.25 -58.070312 42.476562 -55.25 42.476562 -51.984375 C 42.476562 -48.269531 39.0625 -43.664062 33.269531 -43.664062 Z M 33.269531 -43.664062 "/></g></g></g><g fill="#000000" fill-opacity="1"><g transform="translate(1354.447955, 545.84689)"><g><path d="M 61.042969 -40.695312 C 58.070312 -36.238281 54.953125 -32.972656 50.496094 -32.824219 C 48.566406 -42.03125 40.695312 -53.914062 40.695312 -56.734375 C 40.695312 -62.675781 51.535156 -63.121094 51.386719 -67.875 C 51.535156 -72.625 47.082031 -77.972656 37.871094 -77.972656 C 25.101562 -77.972656 14.554688 -55.84375 4.011719 -41.585938 L 3.414062 -40.695312 C -5.496094 -25.84375 -2.375 -0.148438 23.761719 -0.148438 C 51.386719 -0.148438 63.566406 -28.367188 67.726562 -36.980469 C 69.0625 -39.804688 63.417969 -44.257812 61.042969 -40.695312 Z M 18.417969 -30.742188 C 13.515625 -30.742188 10.097656 -33.417969 10.097656 -36.980469 C 13.515625 -41.289062 18.121094 -47.378906 21.832031 -52.875 C 23.167969 -54.804688 24.359375 -54.804688 25.398438 -52.875 C 27.476562 -48.863281 28.664062 -45.152344 28.664062 -41.585938 C 28.664062 -35.496094 24.953125 -30.742188 18.417969 -30.742188 Z M 18.417969 -30.742188 "/></g></g></g><g clip-path="url(#ca6114d2c0)"><path fill="#fff0b1" d="M 22.308594 52.304688 C 22.929688 71.609375 22.402344 72.769531 22.347656 85.503906 C 22.308594 95.269531 26.558594 97.582031 26.039062 109.59375 C 25.417969 123.914062 26.996094 122.589844 26.660156 127.652344 C 26.039062 136.992188 24.171875 148.292969 24.171875 153.804688 C 24.171875 162.550781 22.90625 175.730469 23.550781 184.316406 C 24.261719 193.722656 22.308594 191.785156 24.796875 207.355469 C 27.28125 222.921875 26.039062 223.375 26.039062 232.882812 C 26.039062 236.261719 19.46875 243.027344 30.390625 245.339844 C 59.550781 251.507812 122.691406 243.03125 152.878906 241.71875 C 181.191406 240.488281 200.476562 244.566406 228.121094 242.222656 C 250.007812 240.371094 284.097656 249.101562 307.085938 248.453125 C 346.570312 247.335938 379.101562 239.875 418.386719 238.488281 C 437.855469 237.800781 471.609375 237.015625 491.136719 237.242188 C 506.984375 237.429688 514.175781 240.976562 529.6875 241.601562 C 545.929688 242.257812 574.339844 239.847656 590 239.109375 C 608.964844 238.21875 629.25 233.410156 647.996094 234.734375 C 657.613281 235.414062 720.320312 239.367188 726.765625 236.640625 C 729.953125 235.289062 727.414062 233.507812 729.28125 219.183594 C 731.148438 204.863281 729.269531 204.273438 726.765625 191.550781 C 725.230469 183.757812 729.125 165.457031 728.039062 156.917969 C 725.867188 139.890625 721.421875 136.421875 722.441406 120.800781 C 723.25 108.4375 726.765625 96.527344 726.765625 84.234375 C 726.765625 74.097656 728.039062 68.972656 728.039062 58.535156 C 728.039062 57.015625 731.613281 41.382812 726.792969 40.476562 C 718.210938 38.859375 685.445312 44.347656 677.253906 44.863281 C 637.925781 47.328125 616.707031 41.808594 576.320312 41.097656 C 559.355469 40.800781 523.1875 47.246094 506.214844 46.765625 C 478.949219 45.996094 433.277344 51.652344 410.925781 51.0625 C 380.550781 50.253906 374.042969 43.230469 336.933594 42.34375 C 329.378906 42.164062 297.707031 40.570312 290.164062 40.417969 C 261.488281 39.839844 232.539062 41.222656 203.769531 42.820312 C 181.378906 44.066406 159.09375 45.445312 137.125 46.132812 C 119.191406 46.695312 98.582031 47.402344 80.863281 47.402344 C 59.648438 47.402344 22.136719 46.988281 22.308594 52.304688 Z M 22.308594 52.304688 " fill-opacity="1" fill-rule="nonzero"/></g><g fill="#000000" fill-opacity="1"><g transform="translate(52.241479, 169.239044)"><g><path d="M 6.125 -84.28125 L 36.875 -84.28125 C 45.457031 -84.28125 52.40625 -82.066406 57.71875 -77.640625 C 63.03125 -73.210938 65.6875 -66.773438 65.6875 -58.328125 C 65.6875 -49.878906 62.992188 -43.253906 57.609375 -38.453125 C 52.234375 -33.660156 45.320312 -31.265625 36.875 -31.265625 L 25.328125 -31.265625 L 25.328125 0 L 6.125 0 Z M 25.328125 -46.578125 L 30.75 -46.578125 C 35.039062 -46.578125 38.5625 -47.445312 41.3125 -49.1875 C 44.070312 -50.925781 45.453125 -53.769531 45.453125 -57.71875 C 45.453125 -61.738281 44.070312 -64.613281 41.3125 -66.34375 C 38.5625 -68.082031 35.039062 -68.953125 30.75 -68.953125 L 25.328125 -68.953125 Z M 25.328125 -46.578125 "/></g></g></g><g fill="#000000" fill-opacity="1"><g transform="translate(120.282333, 169.239044)"><g><path d="M 6.125 0 L 6.125 -52.40625 L 24.21875 -52.40625 L 24.21875 -44.84375 L 24.421875 -44.84375 C 24.554688 -45.113281 24.773438 -45.453125 25.078125 -45.859375 C 25.378906 -46.273438 26.039062 -46.992188 27.0625 -48.015625 C 28.09375 -49.035156 29.1875 -49.953125 30.34375 -50.765625 C 31.5 -51.585938 32.992188 -52.320312 34.828125 -52.96875 C 36.671875 -53.613281 38.546875 -53.9375 40.453125 -53.9375 C 42.429688 -53.9375 44.375 -53.660156 46.28125 -53.109375 C 48.1875 -52.566406 49.582031 -52.023438 50.46875 -51.484375 L 51.890625 -50.671875 L 44.328125 -35.34375 C 42.085938 -37.25 38.957031 -38.203125 34.9375 -38.203125 C 32.757812 -38.203125 30.882812 -37.722656 29.3125 -36.765625 C 27.75 -35.816406 26.644531 -34.660156 26 -33.296875 C 25.351562 -31.941406 24.894531 -30.785156 24.625 -29.828125 C 24.351562 -28.878906 24.21875 -28.128906 24.21875 -27.578125 L 24.21875 0 Z M 6.125 0 "/></g></g></g><g fill="#000000" fill-opacity="1"><g transform="translate(171.159722, 169.239044)"><g><path d="M 11.078125 -6.234375 C 5.253906 -11.410156 2.34375 -18.050781 2.34375 -26.15625 C 2.34375 -34.257812 5.375 -40.914062 11.4375 -46.125 C 17.5 -51.332031 24.992188 -53.9375 33.921875 -53.9375 C 42.703125 -53.9375 50.101562 -51.3125 56.125 -46.0625 C 62.15625 -40.820312 65.171875 -34.179688 65.171875 -26.140625 C 65.171875 -18.109375 62.222656 -11.488281 56.328125 -6.28125 C 50.441406 -1.070312 42.972656 1.53125 33.921875 1.53125 C 24.515625 1.53125 16.898438 -1.054688 11.078125 -6.234375 Z M 25.078125 -35.03125 C 22.734375 -32.71875 21.5625 -29.753906 21.5625 -26.140625 C 21.5625 -22.535156 22.679688 -19.59375 24.921875 -17.3125 C 27.171875 -15.03125 30.132812 -13.890625 33.8125 -13.890625 C 37.351562 -13.890625 40.265625 -15.046875 42.546875 -17.359375 C 44.828125 -19.679688 45.96875 -22.613281 45.96875 -26.15625 C 45.96875 -29.757812 44.789062 -32.71875 42.4375 -35.03125 C 40.09375 -37.351562 37.21875 -38.515625 33.8125 -38.515625 C 30.34375 -38.515625 27.429688 -37.351562 25.078125 -35.03125 Z M 25.078125 -35.03125 "/></g></g></g><g fill="#000000" fill-opacity="1"><g transform="translate(238.689754, 169.239044)"><g><path d="M 6.125 0 L 6.125 -52.40625 L 24.21875 -52.40625 L 24.21875 -46.890625 L 24.421875 -46.890625 C 29.117188 -51.585938 34.125 -53.9375 39.4375 -53.9375 C 42.019531 -53.9375 44.585938 -53.59375 47.140625 -52.90625 C 49.691406 -52.226562 52.144531 -51.175781 54.5 -49.75 C 56.851562 -48.320312 58.757812 -46.296875 60.21875 -43.671875 C 61.6875 -41.046875 62.421875 -38 62.421875 -34.53125 L 62.421875 0 L 44.328125 0 L 44.328125 -29.625 C 44.328125 -32.351562 43.457031 -34.738281 41.71875 -36.78125 C 39.988281 -38.820312 37.726562 -39.84375 34.9375 -39.84375 C 32.207031 -39.84375 29.738281 -38.785156 27.53125 -36.671875 C 25.320312 -34.554688 24.21875 -32.207031 24.21875 -29.625 L 24.21875 0 Z M 6.125 0 "/></g></g></g><g fill="#000000" fill-opacity="1"><g transform="translate(306.219787, 169.239044)"><g><path d="M 11.078125 -6.234375 C 5.253906 -11.410156 2.34375 -18.050781 2.34375 -26.15625 C 2.34375 -34.257812 5.375 -40.914062 11.4375 -46.125 C 17.5 -51.332031 24.992188 -53.9375 33.921875 -53.9375 C 42.703125 -53.9375 50.101562 -51.3125 56.125 -46.0625 C 62.15625 -40.820312 65.171875 -34.179688 65.171875 -26.140625 C 65.171875 -18.109375 62.222656 -11.488281 56.328125 -6.28125 C 50.441406 -1.070312 42.972656 1.53125 33.921875 1.53125 C 24.515625 1.53125 16.898438 -1.054688 11.078125 -6.234375 Z M 25.078125 -35.03125 C 22.734375 -32.71875 21.5625 -29.753906 21.5625 -26.140625 C 21.5625 -22.535156 22.679688 -19.59375 24.921875 -17.3125 C 27.171875 -15.03125 30.132812 -13.890625 33.8125 -13.890625 C 37.351562 -13.890625 40.265625 -15.046875 42.546875 -17.359375 C 44.828125 -19.679688 45.96875 -22.613281 45.96875 -26.15625 C 45.96875 -29.757812 44.789062 -32.71875 42.4375 -35.03125 C 40.09375 -37.351562 37.21875 -38.515625 33.8125 -38.515625 C 30.34375 -38.515625 27.429688 -37.351562 25.078125 -35.03125 Z M 25.078125 -35.03125 "/></g></g></g><g fill="#000000" fill-opacity="1"><g transform="translate(373.749819, 169.239044)"><g><path d="M 6.125 0 L 6.125 -52.40625 L 24.21875 -52.40625 L 24.21875 -46.890625 L 24.421875 -46.890625 C 29.117188 -51.585938 34.125 -53.9375 39.4375 -53.9375 C 43.25 -53.9375 46.820312 -53.148438 50.15625 -51.578125 C 53.5 -50.015625 56.019531 -47.597656 57.71875 -44.328125 C 63.03125 -50.734375 68.816406 -53.9375 75.078125 -53.9375 C 80.671875 -53.9375 85.472656 -52.367188 89.484375 -49.234375 C 93.503906 -46.109375 95.515625 -41.207031 95.515625 -34.53125 L 95.515625 0 L 77.4375 0 L 77.4375 -29.625 C 77.4375 -32.414062 76.671875 -34.75 75.140625 -36.625 C 73.609375 -38.5 71.304688 -39.4375 68.234375 -39.4375 C 65.578125 -39.4375 63.550781 -38.632812 62.15625 -37.03125 C 60.757812 -35.425781 59.992188 -33.503906 59.859375 -31.265625 L 59.859375 0 L 41.78125 0 L 41.78125 -29.625 C 41.78125 -32.414062 41.015625 -34.75 39.484375 -36.625 C 37.953125 -38.5 35.65625 -39.4375 32.59375 -39.4375 C 29.800781 -39.4375 27.707031 -38.566406 26.3125 -36.828125 C 24.914062 -35.085938 24.21875 -33.023438 24.21875 -30.640625 L 24.21875 0 Z M 6.125 0 "/></g></g></g><g fill="#000000" fill-opacity="1"><g transform="translate(474.380797, 169.239044)"><g><path d="M 60.0625 -45.859375 C 64.96875 -40.484375 67.421875 -33.910156 67.421875 -26.140625 C 67.421875 -18.378906 64.96875 -11.828125 60.0625 -6.484375 C 55.164062 -1.140625 48.9375 1.53125 41.375 1.53125 C 34.425781 1.53125 28.707031 -0.953125 24.21875 -5.921875 L 24 -5.921875 L 24 0 L 6.125 0 L 6.125 -87.859375 L 24.21875 -87.859375 L 24.21875 -47.40625 C 28.707031 -51.757812 34.425781 -53.9375 41.375 -53.9375 C 48.9375 -53.9375 55.164062 -51.242188 60.0625 -45.859375 Z M 44.84375 -17.3125 C 47.09375 -19.59375 48.21875 -22.535156 48.21875 -26.140625 C 48.21875 -29.753906 47.039062 -32.71875 44.6875 -35.03125 C 42.34375 -37.351562 39.429688 -38.515625 35.953125 -38.515625 C 32.546875 -38.515625 29.664062 -37.351562 27.3125 -35.03125 C 24.96875 -32.71875 23.796875 -29.757812 23.796875 -26.15625 C 23.796875 -22.613281 24.9375 -19.679688 27.21875 -17.359375 C 29.5 -15.046875 32.410156 -13.890625 35.953125 -13.890625 C 39.628906 -13.890625 42.59375 -15.03125 44.84375 -17.3125 Z M 44.84375 -17.3125 "/></g></g></g><g fill="#000000" fill-opacity="1"><g transform="translate(544.158401, 169.239044)"><g><path d="M 6.125 0 L 6.125 -52.40625 L 24.21875 -52.40625 L 24.21875 -44.84375 L 24.421875 -44.84375 C 24.554688 -45.113281 24.773438 -45.453125 25.078125 -45.859375 C 25.378906 -46.273438 26.039062 -46.992188 27.0625 -48.015625 C 28.09375 -49.035156 29.1875 -49.953125 30.34375 -50.765625 C 31.5 -51.585938 32.992188 -52.320312 34.828125 -52.96875 C 36.671875 -53.613281 38.546875 -53.9375 40.453125 -53.9375 C 42.429688 -53.9375 44.375 -53.660156 46.28125 -53.109375 C 48.1875 -52.566406 49.582031 -52.023438 50.46875 -51.484375 L 51.890625 -50.671875 L 44.328125 -35.34375 C 42.085938 -37.25 38.957031 -38.203125 34.9375 -38.203125 C 32.757812 -38.203125 30.882812 -37.722656 29.3125 -36.765625 C 27.75 -35.816406 26.644531 -34.660156 26 -33.296875 C 25.351562 -31.941406 24.894531 -30.785156 24.625 -29.828125 C 24.351562 -28.878906 24.21875 -28.128906 24.21875 -27.578125 L 24.21875 0 Z M 6.125 0 "/></g></g></g><g fill="#000000" fill-opacity="1"><g transform="translate(595.035775, 169.239044)"><g><path d="M 59.140625 -23.703125 L 21.140625 -23.703125 C 21.140625 -20.023438 22.332031 -17.300781 24.71875 -15.53125 C 27.101562 -13.757812 29.691406 -12.875 32.484375 -12.875 C 35.410156 -12.875 37.722656 -13.265625 39.421875 -14.046875 C 41.128906 -14.828125 43.070312 -16.375 45.25 -18.6875 L 58.328125 -12.15625 C 52.878906 -3.03125 43.820312 1.53125 31.15625 1.53125 C 23.257812 1.53125 16.484375 -1.171875 10.828125 -6.578125 C 5.171875 -11.992188 2.34375 -18.515625 2.34375 -26.140625 C 2.34375 -33.773438 5.171875 -40.316406 10.828125 -45.765625 C 16.484375 -51.210938 23.257812 -53.9375 31.15625 -53.9375 C 39.46875 -53.9375 46.226562 -51.535156 51.4375 -46.734375 C 56.644531 -41.929688 59.25 -35.070312 59.25 -26.15625 C 59.25 -24.925781 59.210938 -24.109375 59.140625 -23.703125 Z M 21.65625 -33.71875 L 41.578125 -33.71875 C 41.171875 -36.4375 40.097656 -38.523438 38.359375 -39.984375 C 36.617188 -41.453125 34.390625 -42.1875 31.671875 -42.1875 C 28.671875 -42.1875 26.285156 -41.398438 24.515625 -39.828125 C 22.742188 -38.265625 21.789062 -36.226562 21.65625 -33.71875 Z M 21.65625 -33.71875 "/></g></g></g><g fill="#000000" fill-opacity="1"><g transform="translate(656.64034, 169.239044)"><g><path d="M 28.90625 -53.9375 C 31.90625 -53.9375 34.867188 -53.59375 37.796875 -52.90625 C 40.722656 -52.226562 42.898438 -51.550781 44.328125 -50.875 L 46.484375 -49.859375 L 40.5625 -38 C 36.46875 -40.175781 32.582031 -41.265625 28.90625 -41.265625 C 26.863281 -41.265625 25.414062 -41.039062 24.5625 -40.59375 C 23.71875 -40.15625 23.296875 -39.328125 23.296875 -38.109375 C 23.296875 -37.835938 23.328125 -37.5625 23.390625 -37.28125 C 23.460938 -37.007812 23.597656 -36.753906 23.796875 -36.515625 C 24.003906 -36.273438 24.191406 -36.070312 24.359375 -35.90625 C 24.535156 -35.738281 24.828125 -35.550781 25.234375 -35.34375 C 25.640625 -35.144531 25.960938 -34.992188 26.203125 -34.890625 C 26.441406 -34.785156 26.832031 -34.628906 27.375 -34.421875 C 27.914062 -34.222656 28.320312 -34.070312 28.59375 -33.96875 C 28.875 -33.863281 29.335938 -33.707031 29.984375 -33.5 C 30.628906 -33.300781 31.125 -33.164062 31.46875 -33.09375 C 33.570312 -32.476562 35.40625 -31.796875 36.96875 -31.046875 C 38.539062 -30.304688 40.195312 -29.285156 41.9375 -27.984375 C 43.675781 -26.691406 45.019531 -25.054688 45.96875 -23.078125 C 46.925781 -21.109375 47.40625 -18.863281 47.40625 -16.34375 C 47.40625 -4.425781 39.128906 1.53125 22.578125 1.53125 C 18.828125 1.53125 15.265625 0.953125 11.890625 -0.203125 C 8.523438 -1.359375 6.09375 -2.515625 4.59375 -3.671875 L 2.34375 -5.515625 L 9.703125 -17.875 C 10.242188 -17.394531 10.957031 -16.832031 11.84375 -16.1875 C 12.726562 -15.539062 14.328125 -14.65625 16.640625 -13.53125 C 18.960938 -12.40625 20.972656 -11.84375 22.671875 -11.84375 C 26.421875 -11.84375 28.296875 -13.101562 28.296875 -15.625 C 28.296875 -16.78125 27.816406 -17.679688 26.859375 -18.328125 C 25.910156 -18.984375 24.296875 -19.71875 22.015625 -20.53125 C 19.734375 -21.351562 17.945312 -22.101562 16.65625 -22.78125 C 13.382812 -24.476562 10.796875 -26.398438 8.890625 -28.546875 C 6.984375 -30.691406 6.03125 -33.535156 6.03125 -37.078125 C 6.03125 -42.390625 8.085938 -46.523438 12.203125 -49.484375 C 16.328125 -52.453125 21.894531 -53.9375 28.90625 -53.9375 Z M 28.90625 -53.9375 "/></g></g></g><g clip-path="url(#2709aa9709)"><path fill="#f7bd9a" d="M 499.035156 606.53125 C 492.164062 643.929688 506.285156 684.84375 523.386719 726.125 C 525.390625 730.960938 527.226562 735.796875 531.03125 739.070312 C 538.5625 745.550781 552.308594 746.496094 565.449219 740.152344 C 588.949219 728.804688 606.335938 696.992188 623.035156 663.300781 C 638.949219 631.191406 654.769531 599.089844 669.0625 566.175781 C 676.316406 562.40625 683.207031 558.027344 689.710938 553.128906 C 696.878906 547.738281 703.5625 541.714844 709.765625 535.175781 C 712.960938 535.902344 716.121094 535.484375 719.03125 534.277344 C 725.0625 531.78125 729.144531 527.136719 728.75 522.136719 C 728.46875 518.558594 725.917969 515.753906 721.976562 515.070312 C 722.367188 511.140625 721.621094 507.402344 719.566406 504.417969 C 717.90625 502.003906 715.476562 500.21875 712.5 499.394531 C 712.121094 495.640625 710.640625 492.300781 708.121094 489.820312 C 705.796875 487.53125 702.757812 486.136719 699.332031 485.835938 C 698.390625 483.195312 696.875 480.863281 695.175781 478.695312 C 690.203125 472.347656 683.644531 467.847656 676.828125 468.007812 C 671.246094 468.140625 665.851562 471.339844 661.164062 475.644531 C 656.5625 479.871094 652.84375 485.039062 648.847656 485.417969 C 643.429688 485.929688 637.859375 477.90625 631.492188 469.835938 C 627.699219 465.023438 623.6875 460.539062 618.816406 457.503906 C 609.714844 451.835938 600.722656 451.890625 599.105469 455.640625 C 597.578125 459.191406 605.164062 466.375 611.492188 475.101562 C 617.632812 483.566406 622.386719 493.09375 624.34375 502.757812 C 625.402344 507.992188 625.574219 513.253906 626.542969 518.421875 C 627.3125 522.53125 628.515625 526.582031 630.269531 530.417969 C 623.867188 542.804688 616.914062 554.859375 609.566406 566.75 C 597.921875 585.589844 585.234375 603.964844 572.070312 621.96875 C 566.296875 609.644531 562.828125 596.496094 561.335938 583.097656 C 559.144531 563.378906 561.25 543.867188 554.503906 538.472656 C 541.230469 527.859375 508.386719 555.613281 499.035156 606.53125 " fill-opacity="1" fill-rule="nonzero"/></g><g clip-path="url(#81271b3341)"><path fill="#ffeaca" d="M 385.757812 380.492188 C 362.878906 375.761719 340.828125 367.4375 317.738281 364.972656 C 284.308594 361.398438 248.996094 369.460938 215.980469 384.894531 C 219.625 414.070312 224.230469 444.136719 232.035156 467.355469 C 234.347656 474.25 236.820312 480.574219 240.164062 486.644531 L 248.214844 484.789062 C 252.207031 508.324219 258.183594 531.441406 263.292969 554.742188 C 270.414062 587.179688 279.3125 619.328125 276.476562 649.457031 C 274.523438 670.246094 266.976562 689.726562 271.957031 706.011719 C 280.242188 733.121094 320.847656 749.746094 364.683594 763.523438 C 390.332031 771.589844 415.996094 778.355469 441.648438 777.445312 C 467.785156 776.523438 492.628906 768.515625 503.378906 750.78125 C 519.582031 724.046875 500.546875 677.582031 500.929688 628.859375 C 501.140625 602.246094 507.082031 576.910156 523.347656 567.292969 C 534.105469 560.933594 549.136719 562.132812 563.347656 558.480469 C 567.371094 557.445312 571.261719 556.085938 573.015625 553.335938 C 575.386719 549.621094 573.796875 543.714844 571.914062 537.40625 C 566.796875 520.289062 559.246094 501.640625 553.113281 483.566406 C 543.390625 454.914062 537.058594 425.300781 518.144531 409.011719 C 490.210938 384.949219 437.136719 391.113281 385.757812 380.492188 " fill-opacity="1" fill-rule="nonzero"/></g><path fill="#f7bd9a" d="M 487.097656 209.773438 C 467.984375 211.421875 450.113281 222.90625 434.386719 237.609375 C 412.742188 257.835938 396.46875 283.230469 385.824219 311.34375 C 376.21875 336.695312 371.460938 363.390625 375.550781 388.816406 C 378.527344 407.324219 385.703125 424.523438 399.390625 434.796875 C 420.960938 450.988281 455.433594 448.933594 487.429688 434.652344 C 512.589844 423.425781 534.074219 405.464844 544.613281 381.632812 C 552.675781 363.398438 553.875 342.375 554.949219 321.078125 C 556.59375 288.460938 558.140625 256.792969 543.351562 235.296875 C 531.007812 217.355469 509.292969 207.621094 487.097656 209.773438 " fill-opacity="1" fill-rule="nonzero"/><path fill="#ffa598" d="M 395.222656 328.757812 C 395.210938 320.503906 401.863281 313.832031 410.132812 313.84375 C 418.378906 313.851562 425.039062 320.507812 425.039062 328.757812 C 425.039062 337.003906 418.378906 343.660156 410.132812 343.671875 C 401.863281 343.679688 395.210938 337.007812 395.222656 328.757812 " fill-opacity="1" fill-rule="nonzero"/><path fill="#ffa598" d="M 473.324219 362.042969 C 473.3125 353.453125 480.238281 346.507812 488.84375 346.519531 C 497.429688 346.527344 504.363281 353.457031 504.363281 362.042969 C 504.363281 370.632812 497.429688 377.558594 488.84375 377.570312 C 480.238281 377.578125 473.3125 370.636719 473.324219 362.042969 " fill-opacity="1" fill-rule="nonzero"/><path fill="#4e4e4e" d="M 518.128906 210.257812 C 514.796875 204.722656 509.386719 201.644531 503.570312 199.226562 C 479.148438 189.089844 445.941406 197.011719 429.078125 221.902344 C 420.046875 235.238281 416.226562 252.460938 407.035156 266.441406 C 396.445312 282.550781 377.699219 293.839844 368.097656 309.742188 C 363.617188 317.160156 361.082031 325.585938 356.332031 332.289062 C 346.148438 346.667969 326.261719 352.691406 318.261719 366.277344 C 311.113281 378.410156 313.628906 396.316406 306.699219 409.742188 C 301.183594 420.425781 289.800781 428.179688 282.445312 439.097656 C 272.007812 454.578125 269.722656 476.347656 263.832031 496.960938 C 259.59375 511.785156 253.667969 525.980469 250.585938 540.660156 C 241.96875 581.710938 253.082031 617.273438 274.539062 622.585938 C 285.917969 625.402344 298.492188 618.445312 305.425781 607.683594 C 319.292969 586.15625 306.121094 551.84375 320.066406 532.503906 C 329.730469 519.097656 352.28125 513.753906 360.894531 500.121094 C 371.613281 483.15625 360.664062 454.214844 371.683594 432.65625 C 375.625 424.9375 382.328125 418.21875 386.46875 410.164062 C 390.34375 402.625 391.953125 393.941406 392.925781 385.199219 C 393.917969 376.21875 394.25 367.167969 393.839844 358.09375 C 392.941406 342.070312 394.332031 326.273438 398.433594 310.953125 C 403.496094 292.042969 411.738281 274.417969 423.878906 259.386719 C 435.386719 245.148438 449.71875 233.898438 464.234375 232.773438 C 473.070312 232.085938 481.652344 235.375 490.351562 238.714844 C 503.800781 243.875 516.839844 249.324219 522.605469 259.308594 C 527.210938 267.289062 526.851562 277.976562 528.179688 288.464844 C 530.65625 308.007812 538.363281 326.917969 538.40625 342.164062 C 538.425781 348.425781 537.152344 353.960938 534.964844 359.210938 C 532.761719 364.507812 529.574219 369.355469 525.253906 372.902344 C 521.097656 376.320312 515.984375 378.625 510.378906 379.175781 C 505.066406 384.675781 499.171875 389.519531 492.828125 393.699219 C 485.917969 398.25 478.488281 401.988281 470.683594 404.941406 C 467.921875 408.644531 467.324219 413.179688 468.414062 417.484375 C 470.242188 424.714844 477.492188 431.378906 483.644531 438.785156 C 496.859375 454.691406 505.386719 474.070312 504.546875 493.035156 C 503.414062 518.632812 484.566406 542.757812 483.308594 568.9375 C 482.347656 588.929688 491.222656 609.820312 489.757812 630.042969 C 488.507812 647.304688 479.808594 663.375 482.550781 675.585938 C 488.144531 700.46875 519.058594 706.003906 529.574219 691.148438 C 538.242188 678.898438 520.429688 648.25 532.226562 623.96875 C 537.339844 613.453125 548.03125 604.863281 552.703125 592.847656 C 561.539062 570.136719 547.953125 535.605469 553.464844 503.660156 C 557.277344 481.566406 570.324219 460.648438 572.804688 439.140625 C 574.308594 426.101562 572.015625 412.875 568.480469 399.984375 C 564.164062 384.214844 557.800781 368.957031 557.402344 353.492188 C 556.917969 334.652344 565.277344 315.628906 568.910156 295.695312 C 572.828125 274.203125 571.597656 252.0625 560.8125 235.554688 C 551.71875 221.636719 536.472656 211.292969 518.128906 210.257812 " fill-opacity="1" fill-rule="nonzero"/><path fill="#4e4e4e" d="M 457.832031 278.542969 C 457.046875 274.214844 450.351562 271 442.257812 270.074219 C 430.539062 268.734375 421.863281 271.761719 422.34375 274.457031 C 422.726562 276.617188 430.59375 277.699219 438.785156 280.089844 C 441.9375 281.011719 445.042969 282.074219 448.164062 283.085938 C 450.722656 283.910156 453.203125 284.691406 455.074219 283.933594 C 457.070312 283.117188 458.285156 280.894531 457.832031 278.542969 " fill-opacity="1" fill-rule="nonzero"/><path fill="#4e4e4e" d="M 497.113281 295.476562 C 500.863281 293.179688 507.714844 296.035156 513.796875 301.457031 C 522.601562 309.308594 526.121094 317.800781 523.792969 319.238281 C 521.929688 320.390625 515.882812 315.238281 508.640625 310.722656 C 505.855469 308.980469 502.996094 307.371094 500.160156 305.714844 C 497.84375 304.359375 495.609375 303.027344 494.929688 301.121094 C 494.207031 299.089844 495.054688 296.699219 497.113281 295.476562 " fill-opacity="1" fill-rule="nonzero"/><path fill="#393939" d="M 430.761719 294.796875 C 432.308594 291.144531 436 289.246094 438.988281 290.523438 C 441.976562 291.808594 443.132812 295.785156 441.570312 299.429688 C 440.011719 303.074219 436.335938 304.984375 433.347656 303.703125 C 430.359375 302.421875 429.1875 298.4375 430.761719 294.796875 " fill-opacity="1" fill-rule="nonzero"/><path fill="#393939" d="M 491.972656 321.503906 C 493.519531 317.851562 497.210938 315.953125 500.199219 317.230469 C 503.191406 318.511719 504.34375 322.492188 502.785156 326.136719 C 501.226562 329.78125 497.546875 331.6875 494.558594 330.40625 C 491.570312 329.128906 490.394531 325.144531 491.972656 321.503906 " fill-opacity="1" fill-rule="nonzero"/><path stroke-linecap="butt" transform="matrix(0.0198651, 0, 0, -0.0198719, 34.029504, 777.527549)" fill="none" stroke-linejoin="miter" d="M 21345.239778 23685.503977 C 21261.078331 23481.266155 21151.747107 23288.626053 21024.718381 23109.94253 C 20870.750128 22892.730987 20683.156623 22704.415459 20650.907845 22489.169631 C 20605.484261 22185.466613 20819.230738 21886.284741 21193.237913 21771.880109 " stroke="#886047" stroke-width="98.267998" stroke-opacity="1" stroke-miterlimit="4"/><path stroke-linecap="butt" transform="matrix(0.0198651, 0, 0, -0.0198719, 34.029504, 777.527549)" fill="none" stroke-linejoin="miter" d="M 18182.303177 20760.126432 C 18264.891512 20309.977623 18390.937043 19874.76825 18580.300297 19468.454892 C 18726.009717 19155.513013 18905.147749 18866.356289 19172.576644 18667.032755 C 19625.239377 18329.519434 20291.05867 18275.265691 20953.92838 18409.720619 C 21248.493442 18469.478365 21533.22656 18569.926418 21793.576455 18730.132217 " stroke="#886047" stroke-width="98.267998" stroke-opacity="1" stroke-miterlimit="4"/><path fill="#bc8d6e" d="M 445.777344 361.816406 C 437.027344 358.28125 429.4375 353.410156 425.722656 355.140625 C 419.136719 358.203125 422.15625 372.609375 434.679688 378.390625 C 448.6875 384.863281 462.214844 375.5 459.398438 368.640625 C 458.179688 365.671875 451.953125 364.21875 445.777344 361.816406 " fill-opacity="1" fill-rule="nonzero"/><path fill="#ffffff" d="M 459.09375 369.726562 C 459.277344 369.351562 459.324219 368.941406 459.238281 368.550781 C 458.671875 365.988281 452.230469 364.453125 445.777344 361.816406 C 441.886719 360.226562 438.140625 358.265625 434.347656 356.429688 C 431.433594 355.019531 428.734375 353.75 427.65625 354.660156 C 426.605469 355.546875 427.144531 358.101562 428.644531 360.703125 C 430.855469 364.546875 434.878906 367.421875 439.480469 369.425781 C 442.386719 370.691406 445.425781 371.570312 448.554688 371.925781 C 453.585938 372.5 458.152344 371.691406 459.09375 369.726562 " fill-opacity="1" fill-rule="nonzero"/><path stroke-linecap="butt" transform="matrix(0.0198651, 0, 0, -0.0198719, 34.029504, 777.527549)" fill="none" stroke-linejoin="miter" d="M 25068.793864 21832.817284 C 24902.240721 21585.333725 24733.327912 21339.422738 24561.858796 21095.477466 C 24404.351043 20871.582491 24244.8769 20649.260087 24082.846452 20428.510257 " stroke="#886047" stroke-width="98.267998" stroke-opacity="1" stroke-miterlimit="4"/><path fill="#f7bd9a" d="M 216.832031 387.289062 C 205.710938 393.421875 194.128906 398.5625 182.140625 402.496094 C 171.539062 405.980469 160.640625 408.519531 149.523438 409.984375 C 154.46875 402.226562 160.074219 394.972656 166.207031 387.824219 C 178.753906 373.207031 194.035156 359.425781 208.019531 344.59375 C 215.90625 336.226562 223.574219 327.632812 230.695312 318.589844 C 239.453125 315.988281 248.457031 314.449219 257.476562 313.464844 C 269.011719 312.207031 280.671875 312.402344 291.652344 315.164062 C 301.933594 317.746094 310.976562 322.664062 314.046875 319.824219 C 316.527344 317.527344 315.539062 311.5 311.203125 306.742188 C 305.785156 300.792969 295.847656 299.003906 285.746094 296.277344 C 277.609375 294.082031 269.855469 291.304688 267.101562 285.8125 C 265.09375 281.804688 265.824219 276.40625 266.484375 270.980469 C 267.3125 264.148438 267.964844 257.347656 266.265625 251.246094 C 264.945312 246.53125 262.175781 242.335938 258.839844 238.570312 C 256.183594 235.574219 253.210938 232.914062 249.761719 232.007812 C 247.003906 231.28125 243.996094 231.609375 241.425781 233.257812 C 239.582031 229.765625 236.640625 227.496094 233.011719 227.050781 C 229.433594 226.609375 226.074219 228.054688 223.480469 230.945312 C 220.847656 228.109375 217.453125 226.71875 213.882812 227.128906 C 210.128906 227.5625 207.015625 229.875 204.976562 233.453125 C 202.171875 232.316406 199.191406 232.601562 196.609375 233.8125 C 192.769531 235.621094 189.929688 239.675781 188.125 244.234375 C 185.910156 249.839844 185.335938 256.074219 184.886719 262.398438 C 184.21875 271.875 183.945312 281.382812 183.707031 290.90625 C 168.164062 307.933594 151.46875 323.910156 134.863281 339.871094 C 110.617188 363.175781 85.152344 384.921875 63.253906 409.726562 C 45.511719 429.820312 30.480469 450.121094 34.765625 464.386719 C 40.535156 483.582031 77.609375 488.386719 119.648438 485.632812 C 148.867188 483.714844 177.484375 477.125 205.769531 468.304688 C 216.671875 464.90625 227.371094 460.933594 237.882812 456.441406 C 239.246094 445.9375 238.359375 435.464844 235.742188 425.371094 C 232.222656 411.796875 225.527344 399 216.832031 387.289062 " fill-opacity="1" fill-rule="nonzero"/><path stroke-linecap="butt" transform="matrix(0.0198651, 0, 0, -0.0198719, 34.029504, 777.527549)" fill="none" stroke-linejoin="miter" d="M 3787.156344 16353.189247 C 4203.63752 16549.367636 4577.644696 16813.363204 4902.492148 17129.843371 C 5272.763184 17490.748705 5576.176996 17917.112359 5812.536946 18388.687465 " stroke="#886047" stroke-width="98.267998" stroke-opacity="1" stroke-miterlimit="4"/><path stroke-linecap="butt" transform="matrix(0.0198651, 0, 0, -0.0198719, 34.029504, 777.527549)" fill="none" stroke-linejoin="miter" d="M 7790.724214 26406.447129 C 7882.751216 26151.100708 8031.016942 25942.538312 8216.25078 25861.550841 C 8320.076115 25815.946245 8430.783812 25812.407958 8537.165454 25856.636552 " stroke="#886047" stroke-width="98.267998" stroke-opacity="1" stroke-miterlimit="4"/><path stroke-linecap="butt" transform="matrix(0.0198651, 0, 0, -0.0198719, 34.029504, 777.527549)" fill="none" stroke-linejoin="miter" d="M 8543.457898 27197.647547 C 8533.822593 26994.196011 8528.120065 26791.137618 8533.822593 26587.48951 C 8542.278065 26287.32478 8563.121788 25990.698338 8679.92529 25751.863926 C 8755.041348 25598.341559 8865.945684 25470.570063 9007.132409 25405.504886 C 9104.6653 25360.490005 9214.979719 25341.619138 9324.704222 25367.370008 " stroke="#886047" stroke-width="98.267998" stroke-opacity="1" stroke-miterlimit="4"/><path stroke-linecap="butt" transform="matrix(0.0198651, 0, 0, -0.0198719, 34.029504, 777.527549)" fill="none" stroke-linejoin="miter" d="M 9432.658975 27365.912778 C 9287.73611 27074.98691 9193.742719 26770.497607 9188.23683 26457.162584 C 9183.910774 26215.576171 9227.564609 25975.169187 9286.556277 25735.941632 C 9346.531139 25493.175789 9414.961474 25262.597382 9569.323005 25173.550477 C 9678.850869 25110.057872 9815.908178 25120.083021 9921.896541 25214.830499 " stroke="#886047" stroke-width="98.267998" stroke-opacity="1" stroke-miterlimit="4"/><path stroke-linecap="butt" transform="matrix(0.0198651, 0, 0, -0.0198719, 34.029504, 777.527549)" fill="none" stroke-linejoin="miter" d="M 10323.433162 27178.580108 C 10242.02466 26959.402849 10166.908603 26738.653018 10110.866518 26511.80947 C 10043.419378 26239.754469 9988.163848 25966.913182 9963.780626 25688.567892 C 9941.167153 25430.272899 9937.824292 25187.310485 10063.869822 25084.503573 C 10181.263242 24988.773237 10371.609691 25011.968678 10504.93086 25137.774458 C 10695.277309 25316.851124 10686.23192 25701.541613 10820.929562 26051.635513 C 10896.242258 26247.420759 11015.208789 26429.642569 11182.351848 26566.849499 " stroke="#886047" stroke-width="98.267998" stroke-opacity="1" stroke-miterlimit="4"/><path stroke-linecap="butt" transform="matrix(0.0198651, 0, 0, -0.0198719, 34.029504, 777.527549)" fill="none" stroke-linejoin="miter" d="M 31882.331521 14665.229498 C 31976.914829 14496.374552 31990.089635 14302.948164 31939.946717 14128.982358 C 31870.926465 13888.378802 31671.337989 13692.790127 31622.571543 13460.835719 C 31578.524431 13251.290465 31645.578294 13026.412632 31824.519687 12870.92455 " stroke="#886047" stroke-width="98.267998" stroke-opacity="1" stroke-miterlimit="4"/><path stroke-linecap="butt" transform="matrix(0.0198651, 0, 0, -0.0198719, 34.029504, 777.527549)" fill="none" stroke-linejoin="miter" d="M 33263.523109 14376.465917 C 33125.285967 14225.892123 32999.240436 14064.900038 32888.3361 13893.882805 C 32785.100681 13734.659864 32695.236707 13565.804917 32570.960926 13431.939704 C 32370.389255 13215.90759 32087.425887 13093.246953 31939.946717 12875.052552 C 31826.682714 12707.180464 31795.41713 12499.994069 31882.331521 12347.061416 C 31943.092939 12239.929931 32057.340136 12162.87389 32195.773917 12169.557323 " stroke="#886047" stroke-width="98.267998" stroke-opacity="1" stroke-miterlimit="4"/><g clip-path="url(#6e47d742ee)"><path stroke-linecap="butt" transform="matrix(0.0198651, 0, 0, -0.0198719, 34.029504, 777.527549)" fill="none" stroke-linejoin="miter" d="M 33986.56432 13688.071088 C 33802.706955 13537.300737 33623.568923 13381.026384 33450.723335 13217.675456 C 33278.860942 13055.110815 33112.701077 12886.255885 32934.349601 12731.750675 C 32776.645209 12595.330045 32611.861816 12469.131133 32437.246479 12357.871657 C 32321.622809 12284.157339 32206.392418 12220.468169 32194.397445 12145.770994 C 32177.879778 12043.750378 32308.448003 11937.994904 32502.72723 11933.670331 C 32879.094072 11925.414327 33379.146778 12325.437357 33917.150791 12728.015816 C 34115.362795 12876.427309 34344.250467 12968.029634 34553.47425 13094.621689 " stroke="#886047" stroke-width="98.267998" stroke-opacity="1" stroke-miterlimit="4"/></g><path stroke-linecap="butt" transform="matrix(0.0198651, 0, 0, -0.0198719, 34.029504, 777.527549)" fill="none" stroke-linejoin="miter" d="M 33564.970532 12435.322034 C 33618.456311 12318.361973 33696.128674 12223.024779 33790.122065 12183.513901 C 33845.377594 12160.121889 33904.369262 12156.38703 33961.787819 12176.437326 " stroke="#886047" stroke-width="98.267998" stroke-opacity="1" stroke-miterlimit="4"/><path stroke-linecap="butt" transform="matrix(0.0198651, 0, 0, -0.0198719, 34.029504, 777.527549)" fill="none" stroke-linejoin="miter" d="M 30108.648702 12163.660177 C 30219.946316 12023.701246 30362.116236 11918.928619 30522.180295 11844.034865 C 30768.175551 11728.450804 31056.644808 11686.97421 31351.799787 11695.033643 " stroke="#886047" stroke-width="98.267998" stroke-opacity="1" stroke-miterlimit="4"/><path stroke-linecap="butt" transform="matrix(0.0198651, 0, 0, -0.0198719, 34.029504, 777.527549)" fill="none" stroke-linejoin="miter" d="M 31203.337422 11163.897363 C 31302.246786 11003.691564 31428.095677 10868.45035 31580.097542 10786.086877 C 31683.136322 10730.260562 31796.990242 10698.612546 31916.743328 10701.167975 " stroke="#886047" stroke-width="98.267998" stroke-opacity="1" stroke-miterlimit="4"/><path stroke-linecap="butt" transform="matrix(0.0198651, 0, 0, -0.0198719, 34.029504, 777.527549)" fill="none" stroke-linejoin="miter" d="M 26868.433016 7647.036076 C 26686.345401 7414.098811 26507.993925 7178.802686 26337.704643 6937.216273 C 26137.722888 6653.760123 25941.870551 6368.141687 25807.172909 6054.216949 C 25673.6551 5743.437357 25593.229793 5409.265752 25578.088598 5065.068998 " stroke="#886047" stroke-width="98.267998" stroke-opacity="1" stroke-miterlimit="4"/><path stroke-linecap="butt" transform="matrix(0.0198651, 0, 0, -0.0198719, 34.029504, 777.527549)" fill="none" stroke-linejoin="miter" d="M 12956.624584 19761.543047 C 12877.772387 19245.346203 12735.602468 18749.199655 12554.301408 18245.583389 C 12152.961426 17131.219372 11530.009412 15988.352483 10861.240535 14893.645619 " stroke="#c7a66a" stroke-width="98.267998" stroke-opacity="1" stroke-miterlimit="4"/><path stroke-linecap="butt" transform="matrix(0.0198651, 0, 0, -0.0198719, 34.029504, 777.527549)" fill="none" stroke-linejoin="miter" d="M 17629.551247 17244.641146 C 18118.198898 16702.693431 18743.117301 16351.223531 19425.060983 16196.914878 C 20271.198142 16005.454206 21170.034524 16125.362841 22030.72296 16484.49903 " stroke="#c7a66a" stroke-width="98.267998" stroke-opacity="1" stroke-miterlimit="4"/><path stroke-linecap="butt" transform="matrix(0.0198651, 0, 0, -0.0198719, 34.029504, 777.527549)" fill="none" stroke-linejoin="miter" d="M 23070.746068 27237.158425 C 23266.795044 27471.27512 23469.923021 27698.708383 23681.113193 27918.868499 C 23873.229392 28119.371462 24071.834674 28313.780708 24277.125679 28500.916806 " stroke="#9e9e9e" stroke-width="98.267998" stroke-opacity="1" stroke-miterlimit="4"/><path stroke-linecap="butt" transform="matrix(0.0198651, 0, 0, -0.0198719, 34.029504, 777.527549)" fill="none" stroke-linejoin="miter" d="M 23505.121383 17127.09137 C 23887.190753 16528.727625 24108.802786 15853.897554 24198.66676 15171.990909 C 24287.744179 14495.784837 24221.280233 13800.511327 24002.814422 13159.294988 C 23762.914972 12454.979188 23328.539657 11821.429139 23252.047127 11142.077923 C 23178.70082 10490.05015 23437.084326 9802.442929 23704.316582 9120.14314 C 23893.679837 8637.166885 24099.16748 8164.608921 24129.843148 7667.676087 C 24173.89026 6951.369423 23885.814281 6177.663872 23362.558185 5529.370958 " stroke="#9e9e9e" stroke-width="98.267998" stroke-opacity="1" stroke-miterlimit="4"/><path stroke-linecap="butt" transform="matrix(0.0198651, 0, 0, -0.0198719, 34.029504, 777.527549)" fill="none" stroke-linejoin="miter" d="M 24075.374174 18125.478183 C 24396.485487 17591.983044 24614.951298 17009.934737 24756.924579 16413.536707 C 24922.691166 15717.476911 24968.311389 14993.110814 24846.788553 14297.247589 C 24732.934634 13646.202674 24475.337683 13023.070916 24308.587902 12372.615716 C 24164.058315 11808.848561 24085.402758 11226.013967 24145.574259 10658.11881 C 24200.239871 10143.297967 24350.471986 9630.63941 24627.732826 9175.379741 " stroke="#9e9e9e" stroke-width="98.267998" stroke-opacity="1" stroke-miterlimit="4"/><path stroke-linecap="butt" transform="matrix(0.0198651, 0, 0, -0.0198719, 34.029504, 777.527549)" fill="none" stroke-linejoin="miter" d="M 16642.030725 21156.21807 C 15942.389542 20733.785846 15434.864558 20082.54436 15148.165051 19358.178263 C 14847.110905 18597.643004 14818.991543 17724.8654 14391.695228 17115.690221 C 14002.350219 16560.768785 13292.877092 16226.400608 12994.182612 15673.248316 C 12607.983826 14958.121081 12915.330416 13899.190236 12605.42752 13049.21493 C 12341.341486 12325.241976 11621.643136 11774.645114 11474.360605 11089.396752 C 11351.264658 10515.997592 11584.478385 9907.215556 12157.090843 9570.881664 " stroke="#9e9e9e" stroke-width="98.267998" stroke-opacity="1" stroke-miterlimit="4"/><path stroke-linecap="butt" transform="matrix(0.0198651, 0, 0, -0.0198719, 34.029504, 777.527549)" fill="none" stroke-linejoin="miter" d="M 16623.743307 20160.386686 C 16308.334522 19837.61623 16079.643489 19446.045738 15927.248347 19032.655805 C 15741.227954 18527.270395 15684.98923 17976.083818 15478.715031 17487.013846 C 15292.30136 17044.531326 14994.786714 16647.849974 14674.265318 16270.039489 C 14323.658171 15857.435842 13949.454357 15465.668778 13847.792049 15012.964539 C 13735.904518 14514.262561 13966.56194 13944.59826 13835.993715 13470.467724 C 13708.96499 13009.507481 13248.043424 12646.046717 12862.827832 12213.392774 C 12595.595575 11913.031473 12361.005376 11586.722729 12345.864181 11243.901976 C 12332.689375 10948.06182 12466.010545 10639.641086 12749.563829 10463.512993 " stroke="#9e9e9e" stroke-width="98.267998" stroke-opacity="1" stroke-miterlimit="4"/><path stroke-linecap="butt" transform="matrix(0.0198651, 0, 0, -0.0198719, 34.029504, 777.527549)" fill="none" stroke-linejoin="miter" d="M 20176.221556 27704.015814 C 20451.516007 28138.635472 20847.743377 28452.363638 21307.681749 28647.362598 C 21982.74307 28933.570749 22779.130589 28950.475901 23580.23744 28779.458668 " stroke="#9e9e9e" stroke-width="98.267998" stroke-opacity="1" stroke-miterlimit="4"/><path stroke-linecap="butt" transform="matrix(0.0198651, 0, 0, -0.0198719, 34.029504, 777.527549)" fill="none" stroke-linejoin="miter" d="M 21251.246387 28213.332654 C 21620.140951 28365.479021 22004.373348 28460.619642 22392.145246 28477.524794 C 22696.738892 28490.891658 23002.119094 28456.295069 23297.274073 28364.299591 " stroke="#9e9e9e" stroke-width="98.267998" stroke-opacity="1" stroke-miterlimit="4"/><path stroke-linecap="butt" transform="matrix(0.0198651, 0, 0, -0.0198719, 34.029504, 777.527549)" fill="none" stroke-linejoin="miter" d="M 8987.665159 23902.322377 C 9000.446687 23713.220563 9070.450133 23540.827329 9182.92758 23397.919825 C 9322.934472 23220.022588 9523.309504 23095.003094 9754.950121 23023.057913 " stroke="#886047" stroke-width="98.267998" stroke-opacity="1" stroke-miterlimit="4"/><path stroke-linecap="butt" transform="matrix(0.0198651, 0, 0, -0.0198719, 34.029504, 777.527549)" fill="none" stroke-linejoin="miter" d="M 7546.695348 24125.431067 C 7629.676961 24000.608143 7745.103991 23912.347525 7881.178105 23871.067504 C 8018.628692 23829.394339 8165.124667 23839.419487 8305.13156 23897.801232 " stroke="#886047" stroke-width="98.267998" stroke-opacity="1" stroke-miterlimit="4"/><path stroke-linecap="butt" transform="matrix(0.0198651, 0, 0, -0.0198719, 34.029504, 777.527549)" fill="none" stroke-linejoin="miter" d="M 12856.142109 3615.74709 C 13535.922764 3090.114812 14252.868169 2623.650566 15006.585048 2216.354351 C 16567.897862 1372.472762 18203.540177 707.274696 19829.547187 670.51582 C 20834.175294 647.910094 21812.453788 848.609628 22710.700254 1318.022448 " stroke="#c7a66a" stroke-width="98.267998" stroke-opacity="1" stroke-miterlimit="4"/><path stroke-linecap="butt" transform="matrix(0.0198651, 0, 0, -0.0198719, 34.029504, 777.527549)" fill="none" stroke-linejoin="miter" d="M 19829.547187 10070.5665 C 19880.083383 9025.19909 20050.765942 7997.916262 20372.467172 7020.759174 C 20628.884289 6241.54962 20979.294797 5495.560654 21437.26678 4806.577433 " stroke="#c7a66a" stroke-width="98.267998" stroke-opacity="1" stroke-miterlimit="4"/><g clip-path="url(#f0993f9249)"><path fill="#fafafa" d="M 159.410156 564.25 C 116.511719 564.542969 77.519531 573.355469 42.957031 591.359375 C 26.136719 600.121094 15.246094 613.835938 9.738281 630.5 C 1.910156 654.191406 1.996094 673.183594 11.703125 685.714844 C 25.910156 704.0625 51.671875 716.257812 87.730469 721.382812 C 109.546875 724.480469 130.03125 725.878906 149.164062 725.746094 C 168.652344 725.613281 186.734375 723.894531 203.382812 720.777344 L 203.386719 720.777344 L 203.382812 720.777344 L 203.394531 720.777344 C 203.394531 720.777344 203.394531 720.777344 203.394531 720.773438 L 203.394531 720.777344 C 205.382812 720.402344 207.351562 720.007812 209.300781 719.597656 L 209.304688 719.597656 L 209.300781 719.597656 L 209.3125 719.597656 C 207.5625 718.339844 205.929688 717.171875 204.417969 716.09375 L 204.402344 716.09375 C 202.410156 716.480469 200.398438 716.851562 198.359375 717.195312 L 198.367188 717.199219 L 198.359375 717.199219 C 183.15625 719.789062 166.742188 721.21875 149.132812 721.339844 C 130.242188 721.46875 109.972656 720.089844 88.351562 717.015625 C 52.824219 711.96875 28.394531 700.070312 15.1875 683.015625 C 6.878906 672.289062 6.222656 655.195312 13.925781 631.882812 C 19.09375 616.25 29.246094 603.472656 44.996094 595.269531 C 78.84375 577.636719 117.128906 568.945312 159.4375 568.660156 C 173.984375 568.558594 189.003906 569.453125 204.484375 571.316406 C 231.015625 574.515625 249.808594 583.128906 262 595.578125 C 270.875 604.636719 277.167969 621.699219 278.367188 648.148438 C 279.925781 682.40625 278.683594 692.398438 272.503906 696.839844 C 262.929688 703.71875 247.738281 706.917969 223.285156 709.828125 C 221.804688 710.003906 220.289062 710.179688 218.738281 710.355469 L 218.753906 710.355469 C 219.304688 711.71875 219.886719 713.128906 220.492188 714.59375 C 222.035156 714.417969 223.550781 714.242188 225.03125 714.0625 L 225.046875 714.0625 C 225.046875 714.0625 225.046875 714.0625 225.042969 714.0625 L 225.046875 714.0625 C 248.757812 711.199219 264.695312 707.878906 275.074219 700.421875 C 283.683594 694.234375 284.269531 680.882812 282.773438 647.945312 C 281.550781 621.089844 275.148438 602.703125 265.152344 592.492188 C 252.050781 579.117188 232.199219 570.21875 205.011719 566.941406 C 189.363281 565.054688 174.15625 564.148438 159.410156 564.25 Z M 159.410156 564.25 " fill-opacity="0.988" fill-rule="nonzero"/></g><path fill="#fafafa" d="M 209.3125 719.597656 L 209.296875 719.597656 L 209.289062 719.601562 C 209.289062 719.597656 209.292969 719.597656 209.292969 719.597656 Z M 209.3125 719.597656 " fill-opacity="0.988" fill-rule="nonzero"/><g clip-path="url(#fed43ddef7)"><path fill="#fafafa" d="M 223.296875 709.828125 L 223.285156 709.828125 C 221.796875 710.007812 220.285156 710.179688 218.738281 710.355469 L 218.753906 710.355469 C 219.304688 711.71875 219.886719 713.128906 220.492188 714.59375 C 220.820312 715.386719 221.15625 716.195312 221.503906 717.019531 C 222.910156 720.535156 225.488281 726.152344 229.246094 733.875 C 228.664062 733.480469 228 733.03125 227.25 732.519531 C 220.296875 727.492188 214.320312 723.183594 209.316406 719.597656 L 209.3125 719.597656 C 207.5625 718.339844 205.929688 717.171875 204.417969 716.09375 L 204.402344 716.09375 C 202.410156 716.480469 200.398438 716.851562 198.359375 717.195312 L 198.375 717.199219 C 199.882812 718.269531 201.558594 719.460938 203.394531 720.777344 C 208.972656 724.765625 216.0625 729.871094 224.664062 736.09375 L 224.714844 736.128906 C 227.792969 738.226562 229.625 739.429688 230.207031 739.730469 C 230.269531 739.761719 230.328125 739.792969 230.390625 739.816406 L 230.375 739.820312 C 230.929688 740.136719 231.484375 740.292969 232.035156 740.289062 C 232.589844 740.285156 233.140625 740.121094 233.6875 739.796875 C 234.8125 739.191406 235.300781 738.175781 235.148438 736.75 C 235.085938 736.167969 234.894531 735.492188 234.566406 734.722656 L 234.515625 734.617188 C 230.078125 725.574219 227.101562 719.152344 225.582031 715.351562 L 225.570312 715.316406 C 225.394531 714.894531 225.21875 714.476562 225.046875 714.0625 L 225.042969 714.0625 C 224.4375 712.601562 223.855469 711.1875 223.296875 709.828125 Z M 223.296875 709.828125 " fill-opacity="0.988" fill-rule="nonzero"/></g><path fill="#fafafa" d="M 225.042969 714.0625 L 225.03125 714.0625 C 223.554688 714.242188 222.046875 714.417969 220.511719 714.59375 C 222.046875 714.417969 223.554688 714.242188 225.03125 714.0625 Z M 225.042969 714.0625 " fill-opacity="0.988" fill-rule="nonzero"/><g clip-path="url(#5378b84523)"><path fill="#fafafa" d="M 685.734375 264.933594 C 661.191406 264.394531 637.6875 269.089844 615.214844 279.015625 C 615.179688 279.03125 615.144531 279.046875 615.113281 279.0625 C 581.925781 296.609375 567.152344 316.992188 570.792969 340.203125 C 570.800781 340.246094 570.808594 340.289062 570.816406 340.328125 C 573.359375 350.941406 581.4375 360.625 595.054688 369.375 L 595.113281 369.410156 C 607.445312 376.648438 619.230469 381.410156 630.46875 383.695312 L 630.476562 383.695312 C 631.550781 383.914062 632.617188 384.109375 633.675781 384.28125 C 634.046875 383.335938 634.421875 382.316406 634.796875 381.226562 L 634.804688 381.226562 L 634.796875 381.226562 L 634.800781 381.226562 C 633.746094 381.0625 632.683594 380.875 631.617188 380.664062 L 631.609375 380.664062 L 631.617188 380.664062 L 631.617188 380.667969 C 620.59375 378.5 608.984375 373.839844 596.789062 366.6875 C 583.945312 358.433594 576.332031 349.441406 573.957031 339.707031 C 570.550781 318.019531 584.734375 298.761719 616.511719 281.9375 L 616.503906 281.941406 C 638.542969 272.203125 661.597656 267.601562 685.679688 268.128906 C 695.167969 268.339844 704.816406 269.34375 714.625 271.144531 C 747.125 278.222656 766.933594 292.164062 774.0625 312.972656 L 774.050781 312.976562 C 779.421875 336.488281 769.34375 356.035156 743.820312 371.609375 L 743.808594 371.609375 C 725.636719 380.605469 704 384.828125 678.902344 384.277344 C 670.417969 384.089844 661.542969 383.359375 652.273438 382.082031 L 652.265625 382.085938 C 651.105469 381.921875 649.941406 381.753906 648.769531 381.578125 L 648.761719 381.578125 C 647.796875 382.480469 646.792969 383.402344 645.753906 384.34375 L 645.761719 384.347656 C 647.121094 384.5625 648.46875 384.769531 649.8125 384.964844 C 659.9375 386.433594 669.609375 387.269531 678.828125 387.472656 C 704.507812 388.035156 726.679688 383.683594 745.347656 374.414062 C 745.386719 374.394531 745.425781 374.371094 745.46875 374.347656 C 772.371094 357.933594 782.925781 337.183594 777.128906 312.097656 C 777.117188 312.042969 777.101562 311.992188 777.085938 311.9375 C 769.566406 289.984375 748.957031 275.34375 715.253906 268.011719 L 715.203125 268.003906 C 705.21875 266.167969 695.394531 265.144531 685.734375 264.933594 Z M 631.617188 380.664062 L 631.617188 380.667969 L 631.609375 380.664062 Z M 631.617188 380.664062 " fill-opacity="0.988" fill-rule="nonzero"/></g><g clip-path="url(#dfd46476d4)"><path fill="#fafafa" d="M 631.609375 380.664062 C 631.226562 381.757812 630.847656 382.765625 630.46875 383.695312 C 630.238281 384.261719 630.007812 384.800781 629.78125 385.308594 C 626.449219 392.691406 622.320312 399.957031 617.386719 407.101562 C 617.316406 407.203125 617.257812 407.316406 617.210938 407.429688 C 617.074219 407.78125 616.984375 408.089844 616.9375 408.363281 C 616.75 409.441406 617.097656 410.175781 617.984375 410.5625 C 618.195312 410.652344 618.410156 410.703125 618.636719 410.707031 C 618.921875 410.714844 619.222656 410.648438 619.539062 410.515625 C 620.308594 410.1875 621.949219 408.992188 624.453125 406.925781 L 624.464844 406.914062 C 632.492188 400.15625 638.464844 395.058594 642.382812 391.617188 C 645.050781 389.289062 647.527344 387.074219 649.808594 384.964844 L 649.816406 384.964844 L 649.808594 384.964844 L 649.8125 384.964844 C 649.8125 384.964844 649.808594 384.964844 649.804688 384.964844 L 649.8125 384.964844 C 650.847656 384.003906 651.84375 383.070312 652.800781 382.15625 L 652.808594 382.15625 L 652.800781 382.15625 C 651.464844 381.976562 650.121094 381.78125 648.769531 381.578125 L 648.757812 381.578125 C 647.796875 382.480469 646.792969 383.402344 645.753906 384.34375 L 645.757812 384.347656 L 645.753906 384.347656 C 644.035156 385.90625 642.210938 387.527344 640.28125 389.207031 L 640.277344 389.210938 C 636.578125 392.460938 631.027344 397.203125 623.628906 403.441406 C 627.109375 397.90625 630.132812 392.300781 632.691406 386.625 C 633.019531 385.898438 633.347656 385.121094 633.675781 384.285156 L 633.683594 384.285156 L 633.675781 384.28125 L 633.679688 384.285156 C 633.675781 384.28125 633.675781 384.28125 633.671875 384.28125 L 633.675781 384.28125 C 634.046875 383.335938 634.421875 382.316406 634.796875 381.226562 L 634.804688 381.226562 L 634.796875 381.222656 L 634.800781 381.226562 C 633.746094 381.0625 632.683594 380.875 631.617188 380.664062 Z M 631.609375 380.664062 " fill-opacity="0.988" fill-rule="nonzero"/></g><g fill="#fafafa" fill-opacity="1"><g transform="translate(1109.571367, 174.243458)"><g><path d="M 18.339844 0.972656 C 30.269531 0.972656 40.65625 -6.65625 47.390625 -20.207031 C 48.203125 -21.75 45.039062 -24.183594 43.738281 -22.234375 C 41.0625 -18.175781 35.542969 -16.148438 29.296875 -16.148438 C 21.503906 -16.148438 17.203125 -18.421875 17.203125 -22.152344 C 17.203125 -24.507812 18.664062 -26.941406 20.9375 -27.511719 C 23.289062 -25.886719 25.5625 -25.398438 27.753906 -25.398438 C 34.40625 -25.398438 37.492188 -27.671875 37.492188 -31.890625 C 37.492188 -34.003906 37.003906 -35.058594 35.625 -35.058594 C 33.351562 -35.058594 30.269531 -34.246094 25.96875 -34.246094 C 23.859375 -35.21875 22.316406 -37.328125 22.316406 -40.007812 C 22.316406 -43.496094 24.667969 -46.984375 30.269531 -46.984375 C 35.542969 -46.984375 36.761719 -43.902344 36.761719 -40.332031 C 36.761719 -39.359375 37.492188 -38.628906 38.871094 -38.628906 C 42.035156 -38.628906 45.039062 -42.359375 45.039062 -47.796875 C 45.039062 -52.421875 42.929688 -60.539062 30.675781 -60.539062 C 18.582031 -60.539062 10.792969 -54.046875 10.792969 -44.144531 C 10.792969 -39.359375 12.660156 -36.191406 15.660156 -34.488281 C 16.636719 -33.921875 16.390625 -32.703125 15.175781 -32.621094 C 6.492188 -31.890625 0.972656 -25.238281 0.972656 -15.742188 C 0.972656 -4.949219 8.84375 0.972656 18.339844 0.972656 Z M 18.339844 0.972656 "/></g></g></g><g fill="#fafafa" fill-opacity="1"><g transform="translate(1151.44491, 174.243458)"><g><path d="M 6.898438 0 C 17.851562 0 23.371094 -15.742188 25.96875 -20.207031 C 26.859375 -21.75 23.613281 -24.183594 22.316406 -22.234375 C 20.613281 -19.636719 18.582031 -18.097656 15.742188 -18.097656 C 10.875 -18.097656 11.523438 -22.722656 12.902344 -27.429688 C 14.769531 -34.246094 17.933594 -41.710938 22.398438 -50.71875 C 24.914062 -55.832031 23.777344 -58.347656 20.449219 -58.347656 C 13.875 -58.347656 10.144531 -45.929688 1.949219 -22.234375 C 0.324219 -17.609375 -0.8125 -12.496094 -0.8125 -8.359375 C -0.8125 -3.570312 1.136719 0 6.898438 0 Z M 6.898438 0 "/></g></g></g><g fill="#fafafa" fill-opacity="1"><g transform="translate(1171.894783, 174.243458)"><g><path d="M 6.898438 0 C 17.851562 0 23.371094 -15.742188 25.96875 -20.207031 C 26.859375 -21.75 23.613281 -24.183594 22.316406 -22.234375 C 20.613281 -19.636719 18.582031 -18.097656 15.742188 -18.097656 C 10.875 -18.097656 11.523438 -22.722656 12.902344 -27.429688 C 14.769531 -34.246094 17.933594 -41.710938 22.398438 -50.71875 C 24.914062 -55.832031 23.777344 -58.347656 20.449219 -58.347656 C 13.875 -58.347656 10.144531 -45.929688 1.949219 -22.234375 C 0.324219 -17.609375 -0.8125 -12.496094 -0.8125 -8.359375 C -0.8125 -3.570312 1.136719 0 6.898438 0 Z M 6.898438 0 "/></g></g></g><g fill="#fafafa" fill-opacity="1"><g transform="translate(1192.344657, 174.243458)"><g><path d="M 40.492188 -22.234375 C 38.546875 -19.394531 36.355469 -18.257812 34.003906 -18.257812 L 33.433594 -18.257812 C 34.246094 -20.9375 34.652344 -23.777344 34.652344 -26.617188 C 34.652344 -36.84375 29.457031 -40.574219 22.804688 -40.574219 C 9.898438 -40.574219 0.488281 -25.804688 0.488281 -13.632812 C 0.488281 -5.195312 5.761719 0 13.066406 0 C 19.152344 0 24.914062 -3.570312 28.96875 -9.089844 L 29.945312 -9.089844 C 37.816406 -9.089844 41.792969 -15.257812 44.144531 -20.207031 C 45.039062 -22.074219 41.46875 -23.613281 40.492188 -22.234375 Z M 17.691406 -16.796875 C 14.605469 -16.796875 13.472656 -18.828125 13.472656 -21.179688 C 13.472656 -24.75 16.148438 -28.726562 20.125 -28.726562 C 23.289062 -28.726562 24.589844 -26.78125 24.589844 -24.425781 C 24.589844 -21.019531 21.75 -16.796875 17.691406 -16.796875 Z M 17.691406 -16.796875 "/></g></g></g><g fill="#fafafa" fill-opacity="1"><g transform="translate(1230.972185, 174.243458)"><g><path d="M 33.351562 -22.234375 C 31.730469 -19.800781 30.027344 -18.015625 27.589844 -17.933594 C 26.535156 -22.964844 22.234375 -29.457031 22.234375 -31 C 22.234375 -34.246094 28.160156 -34.488281 28.078125 -37.085938 C 28.160156 -39.683594 25.726562 -42.605469 20.691406 -42.605469 C 13.714844 -42.605469 7.953125 -30.511719 2.191406 -22.722656 L 1.867188 -22.234375 C -3.003906 -14.121094 -1.296875 -0.0820312 12.984375 -0.0820312 C 28.078125 -0.0820312 34.730469 -15.5 37.003906 -20.207031 C 37.734375 -21.75 34.652344 -24.183594 33.351562 -22.234375 Z M 10.0625 -16.796875 C 7.382812 -16.796875 5.519531 -18.257812 5.519531 -20.207031 C 7.382812 -22.558594 9.898438 -25.886719 11.929688 -28.890625 C 12.660156 -29.945312 13.308594 -29.945312 13.875 -28.890625 C 15.011719 -26.699219 15.660156 -24.667969 15.660156 -22.722656 C 15.660156 -19.394531 13.632812 -16.796875 10.0625 -16.796875 Z M 10.0625 -16.796875 "/></g></g></g><g fill="#fafafa" fill-opacity="1"><g transform="translate(1177.654676, 723.156659)"><g><path d="M 17.683594 0 C 34.1875 0 38.652344 -47.070312 51.449219 -47.070312 C 54.144531 -47.070312 54.058594 -45.386719 58.101562 -45.386719 C 70.902344 -45.386719 72.082031 -64.332031 56.332031 -64.332031 C 43.871094 -64.332031 38.230469 -47.578125 33.175781 -34.273438 C 29.894531 -25.851562 27.199219 -18.777344 23.492188 -18.777344 C 19.621094 -18.777344 21.976562 -31.242188 25.597656 -48.839844 C 27.367188 -57.429688 26.523438 -62.648438 15.242188 -62.648438 C -2.441406 -62.648438 -15.074219 -52.039062 -15.074219 -39.492188 C -15.074219 -33.007812 -11.453125 -27.113281 -4.546875 -27.113281 C 3.621094 -27.113281 8 -34.355469 6.484375 -38.0625 C 4.632812 -38.0625 3.285156 -39.914062 3.285156 -42.273438 C 3.285156 -47.578125 9.851562 -51.367188 17.347656 -49.175781 C 9.011719 -33.851562 5.980469 -22.734375 5.980469 -14.988281 C 5.980469 -4.292969 11.789062 0 17.683594 0 Z M 17.683594 0 "/></g></g></g><g fill="#fafafa" fill-opacity="1"><g transform="translate(1218.915628, 723.156659)"><g><path d="M 42.019531 -23.074219 C 39.996094 -20.125 37.722656 -18.945312 35.28125 -18.945312 L 34.691406 -18.945312 C 35.535156 -21.726562 35.957031 -24.671875 35.957031 -27.621094 C 35.957031 -38.230469 30.566406 -42.101562 23.660156 -42.101562 C 10.273438 -42.101562 0.503906 -26.777344 0.503906 -14.148438 C 0.503906 -5.390625 5.980469 0 13.558594 0 C 19.871094 0 25.851562 -3.703125 30.0625 -9.429688 L 31.070312 -9.429688 C 39.238281 -9.429688 43.367188 -15.832031 45.808594 -20.96875 C 46.734375 -22.902344 43.03125 -24.503906 42.019531 -23.074219 Z M 18.355469 -17.429688 C 15.15625 -17.429688 13.976562 -19.535156 13.976562 -21.976562 C 13.976562 -25.683594 16.757812 -29.808594 20.882812 -29.808594 C 24.167969 -29.808594 25.515625 -27.789062 25.515625 -25.347656 C 25.515625 -21.808594 22.566406 -17.429688 18.355469 -17.429688 Z M 18.355469 -17.429688 "/></g></g></g><g fill="#fafafa" fill-opacity="1"><g transform="translate(1258.997697, 723.156659)"><g><path d="M 34.609375 -23.074219 C 32.925781 -20.546875 31.15625 -18.695312 28.628906 -18.609375 C 27.535156 -23.832031 23.074219 -30.566406 23.074219 -32.167969 C 23.074219 -35.535156 29.21875 -35.789062 29.136719 -38.480469 C 29.21875 -41.175781 26.695312 -44.207031 21.472656 -44.207031 C 14.230469 -44.207031 8.253906 -31.660156 2.273438 -23.578125 L 1.9375 -23.074219 C -3.117188 -14.652344 -1.347656 -0.0859375 13.472656 -0.0859375 C 29.136719 -0.0859375 36.039062 -16.082031 38.398438 -20.96875 C 39.15625 -22.566406 35.957031 -25.09375 34.609375 -23.074219 Z M 10.441406 -17.429688 C 7.664062 -17.429688 5.726562 -18.945312 5.726562 -20.96875 C 7.664062 -23.410156 10.273438 -26.863281 12.378906 -29.976562 C 13.136719 -31.070312 13.808594 -31.070312 14.398438 -29.976562 C 15.578125 -27.703125 16.25 -25.597656 16.25 -23.578125 C 16.25 -20.125 14.148438 -17.429688 10.441406 -17.429688 Z M 10.441406 -17.429688 "/></g></g></g><g fill="#fafafa" fill-opacity="1"><g transform="translate(78.52931, 670.772317)"><g><path d="M 19.03125 1.011719 C 31.410156 1.011719 42.1875 -6.90625 49.175781 -20.96875 C 50.019531 -22.566406 46.734375 -25.09375 45.386719 -23.074219 C 42.609375 -18.863281 36.882812 -16.757812 30.398438 -16.757812 C 22.316406 -16.757812 17.851562 -19.113281 17.851562 -22.988281 C 17.851562 -25.429688 19.367188 -27.957031 21.726562 -28.546875 C 24.167969 -26.863281 26.523438 -26.355469 28.796875 -26.355469 C 35.703125 -26.355469 38.902344 -28.714844 38.902344 -33.09375 C 38.902344 -35.28125 38.398438 -36.378906 36.964844 -36.378906 C 34.609375 -36.378906 31.410156 -35.535156 26.945312 -35.535156 C 24.757812 -36.546875 23.15625 -38.734375 23.15625 -41.511719 C 23.15625 -45.132812 25.597656 -48.753906 31.410156 -48.753906 C 36.882812 -48.753906 38.144531 -45.554688 38.144531 -41.851562 C 38.144531 -40.839844 38.902344 -40.082031 40.335938 -40.082031 C 43.617188 -40.082031 46.734375 -43.957031 46.734375 -49.597656 C 46.734375 -54.398438 44.546875 -62.816406 31.828125 -62.816406 C 19.285156 -62.816406 11.199219 -56.082031 11.199219 -45.808594 C 11.199219 -40.839844 13.136719 -37.554688 16.25 -35.789062 C 17.261719 -35.199219 17.007812 -33.933594 15.746094 -33.851562 C 6.738281 -33.09375 1.011719 -26.1875 1.011719 -16.335938 C 1.011719 -5.136719 9.179688 1.011719 19.03125 1.011719 Z M 19.03125 1.011719 "/></g></g></g><g fill="#fafafa" fill-opacity="1"><g transform="translate(121.979626, 670.772317)"><g><path d="M 7.15625 0 C 18.523438 0 24.25 -16.335938 26.945312 -20.96875 C 27.871094 -22.566406 24.503906 -25.09375 23.15625 -23.074219 C 21.386719 -20.378906 19.285156 -18.777344 16.335938 -18.777344 C 11.285156 -18.777344 11.957031 -23.578125 13.390625 -28.460938 C 15.324219 -35.535156 18.609375 -43.28125 23.242188 -52.628906 C 25.851562 -57.933594 24.671875 -60.542969 21.21875 -60.542969 C 14.398438 -60.542969 10.527344 -47.660156 2.019531 -23.074219 C 0.335938 -18.273438 -0.84375 -12.96875 -0.84375 -8.671875 C -0.84375 -3.703125 1.179688 0 7.15625 0 Z M 7.15625 0 "/></g></g></g><g fill="#fafafa" fill-opacity="1"><g transform="translate(143.199551, 670.772317)"><g><path d="M 7.15625 0 C 18.523438 0 24.25 -16.335938 26.945312 -20.96875 C 27.871094 -22.566406 24.503906 -25.09375 23.15625 -23.074219 C 21.386719 -20.378906 19.285156 -18.777344 16.335938 -18.777344 C 11.285156 -18.777344 11.957031 -23.578125 13.390625 -28.460938 C 15.324219 -35.535156 18.609375 -43.28125 23.242188 -52.628906 C 25.851562 -57.933594 24.671875 -60.542969 21.21875 -60.542969 C 14.398438 -60.542969 10.527344 -47.660156 2.019531 -23.074219 C 0.335938 -18.273438 -0.84375 -12.96875 -0.84375 -8.671875 C -0.84375 -3.703125 1.179688 0 7.15625 0 Z M 7.15625 0 "/></g></g></g><g fill="#fafafa" fill-opacity="1"><g transform="translate(164.419477, 670.772317)"><g><path d="M 8.925781 0 C 14.90625 0 19.957031 -5.472656 23.324219 -12.292969 L 23.660156 -12.292969 C 22.652344 -5.304688 25.09375 0 30.902344 0 C 40.25 0 44.882812 -13.136719 49.007812 -20.96875 C 49.851562 -22.566406 46.480469 -25.09375 45.21875 -23.074219 C 43.535156 -20.378906 41.429688 -18.777344 38.566406 -18.777344 C 34.863281 -18.777344 33.933594 -22.144531 36.796875 -28.292969 C 38.652344 -33.175781 40.839844 -35.789062 40.839844 -38.988281 C 40.839844 -40.839844 40.082031 -42.101562 37.894531 -42.101562 C 33.933594 -42.101562 33.34375 -38.902344 30.566406 -38.902344 C 28.378906 -38.902344 28.714844 -42.101562 21.976562 -42.101562 C 7.496094 -42.101562 0.253906 -24.417969 0.253906 -12.714844 C 0.253906 -5.222656 3.199219 0 8.925781 0 Z M 17.347656 -17.429688 C 14.734375 -17.429688 13.136719 -19.113281 13.136719 -21.976562 C 13.136719 -25.683594 15.914062 -29.808594 20.292969 -29.808594 C 22.988281 -29.808594 24.671875 -28.125 24.671875 -25.347656 C 24.671875 -21.808594 21.726562 -17.429688 17.347656 -17.429688 Z M 17.347656 -17.429688 "/></g></g></g><g fill="#fafafa" fill-opacity="1"><g transform="translate(623.566544, 354.057507)"><g><path d="M 26.863281 18.105469 C 46.3125 18.105469 56.753906 4.546875 60.039062 -17.09375 C 61.300781 -25.597656 62.816406 -29.726562 64.164062 -34.019531 C 66.859375 -42.859375 72.839844 -49.175781 72.753906 -54.816406 C 72.839844 -58.691406 70.566406 -60.710938 67.113281 -60.710938 C 64.417969 -60.710938 60.375 -59.449219 56.164062 -44.628906 C 52.460938 -32 49.09375 -24.417969 42.273438 -24.417969 C 39.410156 -24.417969 38.144531 -26.609375 38.144531 -30.144531 C 38.144531 -37.386719 44.714844 -49.09375 52.207031 -52.125 C 54.988281 -59.367188 48.921875 -62.648438 39.238281 -62.648438 C 15.914062 -62.648438 1.261719 -50.945312 1.261719 -37.21875 C 1.261719 -31.492188 4.882812 -26.273438 11.789062 -26.273438 C 19.957031 -26.273438 24.335938 -33.515625 22.820312 -37.21875 C 20.96875 -37.21875 19.621094 -39.070312 19.621094 -41.511719 C 19.621094 -48.839844 28.292969 -52.628906 42.355469 -52.125 C 33.261719 -47.578125 23.914062 -31.410156 23.914062 -20.882812 C 23.914062 -12.714844 27.957031 -6.738281 35.449219 -6.738281 C 42.273438 -6.738281 48.671875 -11.789062 51.367188 -20.96875 C 51.785156 -22.316406 53.21875 -22.398438 53.21875 -20.96875 C 53.21875 -16.925781 50.101562 -1.261719 34.1875 -1.261719 C 24.25 -1.261719 20.378906 -7.832031 20.714844 -13.472656 C 20.714844 -14.484375 20.378906 -15.324219 17.851562 -15.324219 C 1.601562 -15.324219 -2.1875 18.105469 26.863281 18.105469 Z M 26.863281 18.105469 "/></g></g></g><g fill="#fafafa" fill-opacity="1"><g transform="translate(687.563144, 354.057507)"><g><path d="M 42.019531 -23.074219 C 39.996094 -20.125 37.722656 -18.945312 35.28125 -18.945312 L 34.691406 -18.945312 C 35.535156 -21.726562 35.957031 -24.671875 35.957031 -27.621094 C 35.957031 -38.230469 30.566406 -42.101562 23.660156 -42.101562 C 10.273438 -42.101562 0.503906 -26.777344 0.503906 -14.148438 C 0.503906 -5.390625 5.980469 0 13.558594 0 C 19.871094 0 25.851562 -3.703125 30.0625 -9.429688 L 31.070312 -9.429688 C 39.238281 -9.429688 43.367188 -15.832031 45.808594 -20.96875 C 46.734375 -22.902344 43.03125 -24.503906 42.019531 -23.074219 Z M 18.355469 -17.429688 C 15.15625 -17.429688 13.976562 -19.535156 13.976562 -21.976562 C 13.976562 -25.683594 16.757812 -29.808594 20.882812 -29.808594 C 24.167969 -29.808594 25.515625 -27.789062 25.515625 -25.347656 C 25.515625 -21.808594 22.566406 -17.429688 18.355469 -17.429688 Z M 18.355469 -17.429688 "/></g></g></g></svg>